<?xml version="1.0" encoding="UTF-8" standalone="no"?>
<svg width="290px" height="290px" viewBox="0 0 290 290" version="1.1" xmlns="http://www.w3.org/2000/svg" xmlns:xlink="http://www.w3.org/1999/xlink">
    <!-- Generator: Sketch 3.7.2 (28276) - http://www.bohemiancoding.com/sketch -->
    <title>Group</title>
    <desc>Created with Sketch.</desc>
    <defs>
        <polygon id="path-1" points="0.0006 289.045 289.045 289.045 289.045 0 0.0006 0"></polygon>
    </defs>
    <g id="Page-1" stroke="none" stroke-width="1" fill="none" fill-rule="evenodd">
        <g id="Group">
            <g id="Page-1">
                <mask id="mask-2" fill="white">
                    <use xlink:href="#path-1"></use>
                </mask>
                <g id="Clip-2"></g>
                <path d="M289.0456,144.5223 C289.0456,224.3403 224.3406,289.0453 144.5226,289.0453 C64.7056,289.0453 0.0006,224.3403 0.0006,144.5223 C0.0006,64.7043 64.7056,-0.0007 144.5226,-0.0007 C224.3406,-0.0007 289.0456,64.7043 289.0456,144.5223" id="Fill-1" fill="#d1d1d1" mask="url(#mask-2)"></path>
            </g>
            <g id="Page-1" transform="translate(57.000000, 57.000000)" stroke="#FFFFFF" stroke-width="9">
                <path d="M148.557,60.5841 C148.557,93.7671 121.657,120.6681 88.473,120.6681 C55.29,120.6681 28.39,93.7671 28.39,60.5841 C28.39,27.4011 55.29,0.5001 88.473,0.5001 C121.657,0.5001 148.557,27.4011 148.557,60.5841 L148.557,60.5841 Z" id="Stroke-1"></path>
                <path d="M0.3993,204.5082 C10.7013,156.6952 46.0533,121.4632 88.0803,121.4632 C130.0713,121.4632 165.3983,156.6342 175.7353,204.3832" id="Stroke-3"></path>
            </g>
        </g>
    </g>
</svg>