<?xml version="1.0" encoding="UTF-8" standalone="no"?>
<svg width="310px" height="42px" viewBox="0 0 310 42" version="1.1" xmlns="http://www.w3.org/2000/svg" xmlns:xlink="http://www.w3.org/1999/xlink" xmlns:sketch="http://www.bohemiancoding.com/sketch/ns">
    <!-- Generator: Sketch 3.0.2 (7799) - http://www.bohemiancoding.com/sketch -->
    <title>Imported Layers</title>
    <description>Created with Sketch.</description>
    <defs></defs>
    <g id="Page-1" stroke="none" stroke-width="1" fill="none" fill-rule="evenodd" sketch:type="MSPage">
        <g id="Imported-Layers" sketch:type="MSLayerGroup" transform="translate(1.000000, 1.000000)" fill="#1A1918">
            <path d="M9.24,5.042 C8.158,5.653 7.631,8.123 7.631,12.398 C7.575,13.369 7.575,14.285 7.603,15.034 C8.019,14.812 8.519,14.59 9.074,14.312 C9.435,14.229 9.462,14.34 9.157,14.729 C8.74,15.256 8.213,15.784 7.631,16.366 C7.631,18.309 7.658,19.558 7.77,20.058 C7.88,20.53 7.603,20.779 6.992,20.724 C6.354,20.724 6.021,20.446 6.076,19.919 C6.021,19.114 5.993,18.365 6.021,17.671 C5.855,17.782 5.743,17.865 5.66,17.948 C4.078,19.114 2.745,20.169 1.69,21.113 C1.524,21.612 1.219,21.64 0.858,21.196 C0.47,20.724 0.108,20.308 -0.196,19.975 C-0.529,19.614 -0.585,19.392 -0.308,19.309 C0.22,19.197 1.247,18.698 2.773,17.754 C3.578,17.199 4.66,16.588 5.993,15.867 C5.937,14.202 5.965,12.703 6.021,11.37 C5.437,11.648 4.8,11.925 4.133,12.12 C3.217,12.425 2.69,12.703 2.523,12.925 C2.302,13.23 1.996,12.925 1.552,11.898 C1.053,10.843 0.969,10.399 1.274,10.455 C1.386,10.51 2.745,10.205 5.327,9.511 C5.605,9.4 5.826,9.316 6.104,9.233 C6.215,5.764 6.548,3.932 7.075,3.765 C7.298,3.71 7.797,3.877 8.574,4.265 C9.268,4.681 9.518,4.931 9.24,5.042 L9.24,5.042 Z M20.509,12.508 C21.648,14.673 22.369,17.421 22.647,20.724 C22.647,20.891 22.674,21.14 22.785,21.39 C22.841,21.695 22.396,21.89 21.48,21.945 C19.538,22.056 18.039,22.112 17.012,22.112 C15.818,22.112 15.069,22.168 14.791,22.223 C14.458,22.306 13.875,21.862 13.099,20.946 C12.293,20.03 11.766,19.253 11.488,18.615 C11.184,17.837 11.044,16.255 11.1,13.813 C11.155,11.37 11.294,9.178 11.517,7.207 C11.738,5.236 11.877,3.516 11.96,1.934 C11.85,1.517 12.1,1.434 12.682,1.628 C13.237,1.906 13.709,2.1 14.069,2.155 C14.403,2.239 14.431,2.461 14.153,2.766 C13.626,3.599 13.265,5.32 13.07,7.984 C12.96,9.066 12.876,10.121 12.849,11.148 C13.459,10.871 14.236,10.343 15.208,9.539 C16.79,8.178 17.678,7.235 17.956,6.624 C18.289,6.097 18.622,6.374 19.038,7.512 C19.427,8.678 19.51,9.289 19.232,9.316 C18.732,9.372 16.567,10.815 12.737,13.563 L12.737,15.229 C12.682,17.394 13.209,18.698 14.292,19.114 C14.958,19.503 15.874,19.697 17.067,19.697 C18.205,19.697 19.011,19.614 19.51,19.419 C19.981,19.114 20.315,18.226 20.481,16.699 C20.647,15.201 20.537,13.813 20.148,12.508 C20.037,12.037 20.176,12.037 20.509,12.508 L20.509,12.508 Z" id="Fill-1" sketch:type="MSShapeGroup"></path>
            <path d="M32.382,8.512 C31.827,7.651 32.104,7.373 33.242,7.596 C36.073,6.957 39.46,6.263 43.4,5.569 C45.261,5.292 47.009,5.098 48.702,4.986 C50.312,4.876 51.312,4.765 51.645,4.598 C51.811,4.543 51.949,4.681 52.116,4.986 C52.228,5.292 52.394,5.514 52.644,5.625 C52.865,5.764 52.949,6.152 52.949,6.79 C52.894,7.429 52.699,7.651 52.394,7.401 C49.729,6.874 46.62,6.874 43.123,7.373 C38.987,7.984 35.823,8.706 33.631,9.539 C33.298,9.677 32.882,9.372 32.382,8.512 L32.382,8.512 Z M33.687,19.586 C34.658,18.67 35.879,17.699 37.322,16.616 C37.434,16.588 37.544,16.588 37.655,16.616 C37.711,16.672 37.684,16.783 37.628,16.894 C36.601,18.615 36.018,20.03 35.852,21.113 C35.796,21.918 35.573,22.251 35.157,22.056 C34.686,21.89 34.214,21.501 33.742,20.863 C33.187,20.225 33.021,19.892 33.242,19.836 C33.409,19.78 33.548,19.697 33.687,19.586 L33.687,19.586 Z M40.182,15.645 C38.877,14.146 37.877,12.647 37.184,11.148 C36.906,10.732 36.906,10.482 37.239,10.427 C37.544,10.371 37.905,10.315 38.35,10.205 C39.099,10.038 40.348,9.733 42.097,9.289 C43.845,8.845 45.205,8.789 46.148,9.122 C48.147,9.705 48.841,10.343 48.175,10.926 C47.037,11.981 46.343,13.202 46.065,14.618 C46.01,15.034 45.815,15.201 45.538,15.117 C45.288,15.034 45.011,14.979 44.789,14.979 C44.566,14.951 44.345,14.951 44.15,14.951 C43.873,15.395 43.762,15.978 43.789,16.727 C43.734,18.615 43.817,20.585 44.067,22.639 C44.178,23.972 44.012,24.555 43.567,24.276 C40.902,23.027 39.016,21.89 37.877,20.807 C37.489,20.53 37.572,20.446 38.127,20.558 C39.043,20.946 39.959,21.279 40.931,21.612 C41.597,21.695 41.957,21.279 41.957,20.363 C41.902,19.059 41.902,17.699 41.902,16.172 C41.902,15.867 41.764,15.617 41.514,15.478 C41.402,15.506 41.347,15.562 41.291,15.562 C41.125,15.617 40.931,15.728 40.792,15.867 C40.569,16.033 40.375,15.978 40.182,15.645 L40.182,15.645 Z M44.733,10.565 C43.706,10.094 42.151,10.26 40.126,11.037 C39.682,11.259 39.626,11.787 39.903,12.592 C40.126,13.397 40.459,13.785 40.875,13.674 C42.124,13.507 43.123,13.313 43.845,13.119 C44.178,13.008 44.455,12.564 44.761,11.815 C45.038,11.065 45.011,10.676 44.733,10.565 L44.733,10.565 Z M41.485,4.237 C40.986,3.21 40.819,2.35 41.014,1.628 C41.402,0.573 41.874,0.296 42.401,0.768 C42.568,0.879 42.763,1.184 42.984,1.6 C43.179,2.072 43.456,2.461 43.789,2.766 C44.122,3.099 44.372,3.432 44.595,3.71 C44.705,3.849 44.649,4.043 44.483,4.32 C44.262,4.626 43.9,4.737 43.4,4.653 C42.873,4.598 42.43,4.57 42.097,4.57 C41.791,4.57 41.569,4.459 41.485,4.237 L41.485,4.237 Z M46.148,16.977 C45.815,16.672 45.927,16.533 46.481,16.533 C48.202,16.838 49.729,17.338 51.033,17.976 C51.2,18.06 51.228,18.587 51.145,19.531 C51.033,20.474 50.812,21.029 50.534,21.14 C50.201,21.252 50.007,21.224 49.896,20.974 C49.729,20.724 49.48,20.391 49.146,19.975 C47.842,18.67 46.843,17.699 46.148,16.977 L46.148,16.977 Z" id="Fill-2" sketch:type="MSShapeGroup"></path>
            <path d="M69.151,17.727 C68.735,16.283 68.347,14.229 67.958,11.537 C67.542,11.01 67.791,10.76 68.735,10.732 C68.957,10.76 69.623,10.649 70.733,10.371 C71.594,10.149 72.454,9.982 73.398,9.816 C73.343,8.873 73.315,8.29 73.315,8.04 C73.259,7.762 73.204,7.54 73.12,7.373 C69.873,7.845 67.292,8.428 65.404,9.066 C65.127,9.233 64.738,8.9 64.267,8.067 C63.711,7.263 63.989,6.985 65.071,7.235 C67.93,6.624 71.399,6.014 75.452,5.347 C77.284,5.098 79.088,4.959 80.809,4.876 C82.502,4.792 83.501,4.681 83.834,4.543 C84.001,4.487 84.111,4.626 84.278,4.959 C84.39,5.264 84.556,5.514 84.833,5.653 C85.056,5.791 85.139,6.208 85.139,6.846 C85.083,7.484 84.861,7.707 84.5,7.457 C81.892,6.874 78.866,6.763 75.424,7.124 C75.369,7.263 75.369,7.373 75.424,7.54 C75.424,8.234 75.396,8.873 75.396,9.511 C77.673,9.178 79.227,9.15 80.06,9.427 C80.531,9.705 81.031,10.01 81.53,10.288 C81.946,10.593 82.002,10.843 81.725,11.121 C81.53,11.231 81.28,12.12 81.003,13.757 C80.726,15.423 80.254,16.949 79.532,18.42 C79.115,19.225 78.782,19.447 78.533,19.003 C77.034,17.727 75.924,16.699 75.229,15.978 C75.119,17.699 75.035,20.113 74.98,23.194 C74.98,23.889 75.064,24.388 75.229,24.638 C75.396,24.888 75.258,25.054 74.813,25.082 C74.342,25.165 73.842,25.165 73.37,25.082 C73.037,25.082 72.981,24.971 73.259,24.721 C73.481,24.526 73.564,24.082 73.564,23.444 C73.509,17.921 73.453,13.896 73.426,11.287 C71.788,11.704 70.816,12.065 70.512,12.453 C70.123,13.008 70.123,14.423 70.428,16.727 C70.373,17.893 70.289,18.476 70.123,18.448 C69.929,18.448 69.734,18.476 69.596,18.503 C69.429,18.559 69.263,18.309 69.151,17.727 L69.151,17.727 Z M72.954,3.432 C72.621,2.572 72.593,1.85 72.815,1.295 C73.315,0.102 73.814,-0.204 74.425,0.379 C74.536,0.462 74.731,0.74 74.952,1.156 C75.175,1.573 75.424,1.934 75.757,2.211 C76.007,2.488 76.284,2.738 76.507,3.016 C76.617,3.183 76.534,3.432 76.313,3.737 C76.035,4.043 75.647,4.154 75.064,4.015 C74.481,3.904 73.981,3.877 73.62,3.849 C73.259,3.849 73.01,3.71 72.954,3.432 L72.954,3.432 Z M78.782,11.093 C78.449,10.732 77.312,10.676 75.396,10.898 C75.341,12.175 75.314,13.258 75.314,14.174 C75.258,14.451 75.229,14.812 75.258,15.256 C76.174,15.811 77.145,16.033 78.228,15.922 C78.533,15.7 78.782,14.923 78.977,13.507 C79.144,12.092 79.061,11.315 78.782,11.093 L78.782,11.093 Z" id="Fill-3" sketch:type="MSShapeGroup"></path>
            <path d="M96.874,11.454 C98.123,9.316 99.232,6.735 100.148,3.737 C100.204,3.404 100.315,3.071 100.481,2.738 C100.593,2.405 101.12,2.461 102.119,2.849 C103.091,3.266 103.341,3.627 102.869,3.877 C102.148,4.626 101.426,5.708 100.648,7.179 C99.844,8.623 99.316,9.677 99.038,10.205 C98.816,10.649 98.678,11.093 98.65,11.537 C99.094,11.759 99.511,12.009 100.01,12.203 C100.287,12.425 100.371,12.703 100.26,13.036 C100.038,13.785 99.927,15.062 99.954,16.811 C99.954,18.615 99.898,20.085 99.788,21.196 C99.732,21.501 99.788,21.835 99.898,22.112 C100.121,22.584 99.565,22.695 98.289,22.389 C97.956,22.306 97.873,22.14 97.983,21.89 C98.15,20.53 98.233,18.781 98.206,16.561 C98.15,15.367 98.067,14.34 98.012,13.535 C97.845,13.729 97.65,13.896 97.456,14.063 C96.651,14.701 95.625,15.423 94.376,16.145 C93.654,16.478 93.543,16.339 93.903,15.728 C94.625,14.59 95.625,13.174 96.874,11.454 L96.874,11.454 Z M100.427,19.142 C102.203,16.977 103.757,14.812 105.061,12.592 C105.589,11.592 106.033,10.704 106.366,9.899 C105.061,10.26 104.062,10.621 103.285,10.982 C103.008,11.176 102.564,10.843 101.925,10.01 C101.287,9.178 101.536,8.845 102.73,9.011 C104.034,8.567 105.533,8.123 107.338,7.596 C107.338,4.348 107.31,2.627 107.254,2.377 C106.977,1.628 107.365,1.351 108.42,1.489 C109.447,1.6 109.725,1.906 109.28,2.377 C109.114,2.6 109.086,3.821 109.142,6.041 L109.142,7.151 C109.808,7.013 110.446,6.902 111.085,6.79 C111.973,6.652 112.5,6.541 112.694,6.457 C112.861,6.374 113.027,6.485 113.194,6.763 C113.333,7.068 113.527,7.263 113.749,7.373 C113.971,7.457 114.082,7.845 114.138,8.456 C114.193,9.066 113.999,9.289 113.61,9.094 C112.306,8.928 110.891,8.983 109.309,9.233 C109.475,9.511 109.642,9.788 109.863,10.066 C110.224,10.732 110.807,11.565 111.612,12.536 C112.361,13.535 113.139,14.312 113.86,14.896 C114.609,15.534 115.581,16.145 116.774,16.644 C117.912,17.227 118.634,17.754 118.995,18.226 C119.106,18.503 119.051,18.643 118.828,18.615 C117.996,18.643 116.83,18.559 115.331,18.365 C113.805,18.198 113.055,17.893 113.083,17.477 C113.083,17.033 113,16.672 112.861,16.394 C112.583,15.839 112.223,15.395 111.778,14.951 C111.278,14.563 110.779,14.007 110.224,13.174 C109.891,12.758 109.558,12.425 109.197,12.203 C109.197,12.536 109.197,12.897 109.225,13.23 C109.225,14.312 109.197,15.339 109.197,16.339 C109.808,16.228 110.335,16.145 110.891,16.061 C111.362,15.95 111.612,16.283 111.667,16.977 C111.667,17.727 111.528,18.06 111.251,18.032 C110.502,18.143 109.808,18.254 109.142,18.337 C109.142,19.114 109.114,19.919 109.114,20.669 C109.003,23 108.975,24.249 109.086,24.416 C109.475,24.998 109.197,25.248 108.337,25.082 C107.421,24.971 107.032,24.832 107.254,24.693 C107.421,24.526 107.504,23.916 107.532,22.861 C107.532,21.529 107.532,20.113 107.477,18.615 C106.532,18.781 105.645,18.948 104.784,19.114 C104.451,19.309 104.201,19.059 104.062,18.365 C103.895,17.699 104.034,17.338 104.451,17.282 C105.477,17.06 106.449,16.866 107.393,16.644 C107.338,15.478 107.338,13.952 107.365,12.065 C106.811,12.619 106.227,13.48 105.562,14.646 C104.534,16.45 103.008,18.087 101.065,19.614 C100.787,19.752 100.537,19.836 100.287,19.864 C100.01,19.892 100.038,19.642 100.427,19.142 L100.427,19.142 Z" id="Fill-4" sketch:type="MSShapeGroup"></path>
            <path d="M139.027,10.288 C137.557,10.371 136.252,10.565 135.114,10.843 C133.977,11.148 133.144,11.481 132.589,11.87 C132.422,11.981 132.2,11.676 131.895,10.926 C131.561,10.232 131.395,9.816 131.423,9.705 C131.423,9.622 131.533,9.566 131.756,9.566 C131.978,9.566 132.227,9.483 132.589,9.261 C133.671,8.373 134.504,7.623 135.031,7.096 C135.309,6.763 135.447,6.457 135.447,6.18 C133.644,6.402 132.395,6.596 131.727,6.763 C130.646,7.04 129.618,7.401 128.675,7.845 C128.286,8.04 128.036,7.929 127.926,7.484 C127.814,7.096 127.676,6.596 127.537,6.041 C127.37,5.486 127.62,5.32 128.398,5.486 C131.006,5.32 132.838,5.126 133.977,4.876 C135.059,4.626 136.28,4.376 137.64,4.126 C139.111,3.904 140.721,3.765 142.47,3.627 C144.19,3.516 145.634,3.432 146.8,3.377 C147.299,3.266 147.632,3.793 147.826,4.931 C147.937,6.069 147.799,6.485 147.355,6.18 C146.133,5.403 143.219,5.292 138.694,5.819 C136.891,7.29 135.808,8.345 135.447,8.956 C135.697,8.956 136.252,8.873 137.057,8.706 C137.89,8.539 138.417,8.373 138.75,8.095 C139.083,7.596 139.583,7.263 140.332,7.013 C141.026,6.985 141.72,7.207 142.441,7.679 C142.913,8.012 143.33,8.484 143.69,9.011 C143.996,9.622 144.218,10.26 144.329,10.954 C144.218,11.426 143.552,11.481 142.303,11.148 C141.637,10.898 141.165,10.649 140.888,10.343 C140.555,10.038 140.582,9.899 141.026,9.899 C141.415,9.899 141.692,9.872 141.914,9.761 C142.081,9.677 142.247,9.566 142.386,9.372 C142.553,9.039 142.386,8.623 141.942,8.095 C141.498,7.79 141.109,7.679 140.665,7.762 C140.082,7.984 139.722,8.29 139.639,8.65 C139.527,9.039 139.444,9.455 139.444,9.872 C139.389,10.149 139.222,10.288 139.027,10.288 L139.027,10.288 Z M132.505,23.389 C132.505,20.363 132.644,17.394 132.977,14.451 C132.977,13.535 133.199,13.036 133.615,12.925 C134.06,12.841 134.559,12.647 135.17,12.37 C135.808,12.037 136.696,11.842 137.778,11.731 C138.973,11.509 140.082,11.454 141.109,11.537 C142.525,11.87 143.053,12.203 142.774,12.536 C142.525,12.869 142.331,13.174 142.247,13.452 C141.858,16.394 141.831,19.17 142.108,21.835 C142.386,24.471 142.22,25.581 141.664,25.109 C138.639,23.444 136.863,22.417 136.446,21.945 C135.947,21.501 135.975,21.362 136.558,21.474 C138.057,22.14 139.194,22.362 139.972,22.14 C140.193,22.028 140.249,20.613 140.11,17.865 C139.943,15.173 139.749,13.729 139.527,13.507 C139.306,12.897 138.473,12.703 137.002,12.953 C136.252,13.064 135.697,13.23 135.364,13.452 C135.086,13.591 134.837,14.09 134.643,14.951 C134.809,15.062 135.031,15.09 135.28,15.006 C136.086,14.84 136.891,14.673 137.751,14.451 C137.973,14.396 138.057,14.59 138.111,15.034 C138.167,15.478 138.111,15.7 137.973,15.728 C137.196,15.867 136.419,16.061 135.586,16.311 C135.031,16.478 134.614,16.727 134.337,17.088 C134.281,17.366 134.254,17.699 134.254,18.004 C134.42,18.087 134.559,18.087 134.781,18.004 C135.808,17.782 136.863,17.56 137.918,17.254 C138.111,17.199 138.251,17.421 138.334,17.837 C138.39,18.309 138.334,18.559 138.195,18.587 C137.279,18.809 136.252,19.086 135.17,19.419 C134.67,19.586 134.337,19.808 134.06,20.085 C134.004,21.002 133.948,22.001 133.948,23.027 C134.004,23.722 133.754,24.11 133.227,24.138 C132.672,24.193 132.422,23.943 132.505,23.389 L132.505,23.389 Z M136.03,2.822 C135.697,1.961 135.642,1.267 135.836,0.657 C136.28,-0.426 136.779,-0.704 137.307,-0.176 C137.418,-0.065 137.612,0.212 137.862,0.573 C138.028,0.99 138.251,1.351 138.584,1.6 C138.861,1.906 139.111,2.183 139.306,2.461 C139.416,2.6 139.333,2.794 139.139,3.099 C138.917,3.404 138.528,3.516 138.001,3.404 C137.445,3.294 136.974,3.238 136.669,3.21 C136.28,3.21 136.086,3.099 136.03,2.822 L136.03,2.822 Z" id="Fill-5" sketch:type="MSShapeGroup"></path>
            <path d="M164.834,12.897 C164.778,15.229 164.778,17.893 164.834,20.919 C164.945,22.195 164.834,22.834 164.557,22.834 C163.807,22.639 163.168,22.417 162.725,22.14 C162.363,21.945 162.363,21.723 162.752,21.501 C163.141,21.279 163.335,21.029 163.335,20.669 C163.224,18.06 163.196,15.672 163.224,13.507 C162.835,13.896 162.447,14.396 162.03,15.034 C161.059,16.394 159.727,17.587 158.061,18.615 C157.867,18.726 157.645,18.781 157.423,18.753 C157.201,18.753 157.257,18.559 157.59,18.17 C159.172,16.533 160.504,14.812 161.67,13.091 C162.28,12.12 162.725,11.315 163.058,10.649 C162.835,10.704 162.641,10.788 162.447,10.843 C160.643,11.204 159.588,11.62 159.227,12.009 C159.033,12.314 158.7,11.981 158.283,10.898 C157.867,9.872 157.811,9.4 158.117,9.455 C158.283,9.511 160.004,9.178 163.224,8.456 C163.224,7.568 163.224,6.79 163.279,6.097 L163.279,5.514 C163.002,5.764 162.558,6.041 161.892,6.291 C160.698,6.763 159.894,7.04 159.477,7.096 C159.005,7.179 158.978,7.04 159.338,6.708 C160.643,5.264 162.475,3.821 164.806,2.322 C165.444,1.961 165.916,1.628 166.193,1.351 C166.472,1.073 166.749,1.212 167.082,1.739 C167.332,2.322 167.609,2.738 167.915,3.016 C168.137,3.294 167.498,3.654 166.027,4.015 C164.501,4.21 163.696,4.543 163.529,5.042 L163.779,5.042 C164.307,5.153 164.806,5.264 165.223,5.375 C165.611,5.431 165.666,5.597 165.417,5.847 C165.139,6.097 165.028,6.485 165.028,7.04 C164.973,7.373 164.945,7.707 164.945,8.067 C165.25,7.984 165.611,7.901 166.055,7.817 C167.026,7.484 167.498,7.457 167.554,7.679 C167.554,7.901 167.554,8.234 167.609,8.595 C167.609,9.011 167.359,9.289 166.915,9.455 C166.249,9.705 165.583,9.955 164.89,10.177 C164.834,10.343 164.834,10.538 164.861,10.704 C164.861,10.76 164.917,10.815 165,10.843 C165.417,11.287 166.055,11.731 166.888,12.12 C167.165,12.286 167.221,12.647 167.082,13.146 C166.915,13.702 166.638,13.868 166.249,13.647 C165.611,13.258 165.111,13.036 164.834,12.897 L164.834,12.897 Z M167.471,15.09 C169.33,14.479 171.551,13.841 174.16,13.146 C174.215,13.119 174.299,13.091 174.382,13.064 C174.326,11.759 174.299,10.676 174.299,9.761 C174.271,7.929 174.271,6.596 174.299,5.764 C174.299,4.931 174.326,3.987 174.355,2.96 C174.355,1.934 174.299,1.351 174.243,1.128 C173.91,0.462 174.299,0.24 175.464,0.407 C176.574,0.545 176.991,0.906 176.713,1.461 C176.574,1.794 176.491,2.572 176.464,3.765 C176.352,4.959 176.297,6.846 176.27,9.4 C176.214,10.399 176.186,11.481 176.186,12.647 C176.658,12.564 177.157,12.481 177.657,12.425 C178.739,12.258 179.378,12.12 179.6,12.009 C179.767,11.925 179.933,12.009 180.1,12.342 C180.266,12.675 180.46,12.897 180.71,13.008 C180.932,13.119 181.071,13.507 181.126,14.174 C181.126,14.812 180.932,15.062 180.544,14.868 C179.184,14.646 177.74,14.646 176.158,14.84 C176.102,15.95 176.102,17.116 176.131,18.365 C176.075,21.807 176.102,23.583 176.214,23.777 C176.491,24.36 176.131,24.693 175.159,24.721 C174.132,24.776 173.855,24.582 174.326,24.055 C174.438,23.833 174.493,21.89 174.465,18.143 C174.409,17.06 174.382,16.061 174.409,15.117 C174.355,15.117 174.299,15.145 174.299,15.145 C171.551,15.672 169.441,16.283 167.97,16.894 C167.692,17.06 167.276,16.755 166.721,15.978 C166.139,15.229 166.388,14.923 167.471,15.09 L167.471,15.09 Z M170.413,11.953 C169.663,11.287 169.219,10.676 169.136,10.038 C169.08,8.983 169.358,8.539 169.969,8.761 C170.135,8.817 170.385,8.983 170.773,9.233 C171.079,9.539 171.439,9.733 171.856,9.844 C172.161,10.01 172.494,10.177 172.827,10.315 C172.939,10.371 172.994,10.565 172.966,10.871 C172.855,11.204 172.578,11.454 172.134,11.592 C171.662,11.731 171.273,11.87 171.023,11.981 C170.773,12.092 170.552,12.092 170.413,11.953 L170.413,11.953 Z M170.552,7.29 C169.94,6.402 169.663,5.653 169.663,5.014 C169.83,4.015 170.19,3.71 170.746,4.015 C170.885,4.098 171.106,4.32 171.384,4.709 C171.662,5.07 171.967,5.375 172.3,5.569 C172.633,5.819 172.911,6.069 173.133,6.263 C173.244,6.374 173.244,6.568 173.133,6.846 C173.05,7.151 172.744,7.318 172.273,7.346 C171.801,7.373 171.412,7.373 171.135,7.429 C170.802,7.484 170.635,7.429 170.552,7.29 L170.552,7.29 Z" id="Fill-6" sketch:type="MSShapeGroup"></path>
            <path d="M191.223,11.787 C191.778,11.01 192.444,10.205 193.249,9.316 C193.305,9.206 193.388,9.178 193.499,9.233 C193.555,9.289 193.582,9.372 193.582,9.483 C193.36,10.788 193.305,11.815 193.471,12.536 C193.693,13.23 193.582,13.563 193.166,13.507 C192.722,13.48 192.166,13.258 191.584,12.869 C190.973,12.453 190.751,12.203 190.89,12.092 C191.001,12.009 191.111,11.925 191.223,11.787 L191.223,11.787 Z M201.52,6.708 C202.88,5.042 204.379,3.099 205.961,0.851 C206.128,0.518 206.433,0.518 206.877,0.851 C207.238,1.212 207.571,1.517 207.849,1.767 C208.07,2.044 207.987,2.294 207.571,2.488 C206.877,3.044 206.155,3.765 205.461,4.626 C204.712,5.403 204.019,6.041 203.436,6.485 C204.019,6.485 204.712,6.485 205.461,6.43 C206.433,6.402 207.266,6.513 207.932,6.79 C208.459,7.013 209.402,8.428 210.791,11.01 C211.068,11.704 210.984,12.009 210.568,11.898 C210.152,11.815 209.542,11.787 208.765,11.787 C207.959,11.787 206.904,11.62 205.572,11.231 C205.517,11.343 205.489,11.426 205.461,11.454 C205.073,11.676 204.629,12.092 204.019,12.703 C203.491,13.174 202.77,13.647 201.908,14.09 C201.908,14.09 201.964,14.118 202.048,14.146 C202.27,14.312 202.381,14.673 202.325,15.229 L202.325,15.284 C203.769,15.117 205.156,15.006 206.488,14.923 C207.959,14.868 208.82,14.784 209.098,14.646 C209.264,14.59 209.402,14.729 209.542,15.034 C209.652,15.367 209.819,15.589 210.069,15.728 C210.291,15.867 210.374,16.255 210.347,16.866 C210.291,17.532 210.069,17.754 209.735,17.504 C207.571,16.949 205.101,16.811 202.352,17.033 C202.352,17.754 202.352,18.643 202.408,19.669 C202.408,21.835 202.436,23.306 202.436,24.11 C202.436,24.555 202.131,24.665 201.52,24.443 C200.937,24.222 200.355,23.972 199.855,23.694 C198.495,23.277 197.412,22.584 196.607,21.585 C196.163,21.168 196.219,21.057 196.719,21.224 C198.245,21.973 199.494,22.223 200.437,21.918 C200.715,21.64 200.826,20.53 200.799,18.559 C200.743,18.06 200.688,17.643 200.688,17.199 C197.44,17.587 194.914,18.06 193.138,18.67 C192.86,18.809 192.527,18.503 192.083,17.754 C191.667,16.977 191.917,16.727 192.86,16.977 C194.97,16.533 197.495,16.061 200.41,15.562 C200.243,15.145 200.133,14.784 199.993,14.507 C199.66,14.202 199.855,14.007 200.576,13.952 L201.02,13.952 C201.187,13.729 201.409,13.48 201.798,13.202 C202.491,12.425 202.741,11.842 202.52,11.454 C202.381,11.148 201.742,11.121 200.605,11.343 C199.411,11.565 198.355,12.092 197.44,12.953 C197.162,13.202 196.746,12.953 196.246,12.12 C195.691,11.315 195.664,10.954 196.136,11.01 C196.357,11.065 196.913,11.01 197.828,10.843 C198.773,10.676 199.771,10.427 200.854,10.066 C201.936,9.733 202.964,9.733 203.935,10.066 C204.656,10.343 205.156,10.621 205.434,10.843 C205.961,10.815 206.627,10.593 207.377,10.177 C208.237,9.733 208.403,9.066 207.904,8.123 C207.349,7.679 206.683,7.512 205.822,7.596 C204.934,7.679 203.99,7.845 202.908,8.095 C201.825,8.373 200.549,8.567 199.133,8.678 C197.689,8.845 196.386,9.261 195.191,9.899 C194.97,10.038 194.748,9.872 194.581,9.4 C194.415,8.928 194.442,8.706 194.692,8.706 C195.137,8.623 195.719,8.484 196.496,8.206 C197.19,7.929 198.162,7.596 199.466,7.179 C199.966,6.985 200.66,6.818 201.52,6.708 L201.52,6.708 Z M195.275,6.402 C194.609,5.403 194.331,4.543 194.415,3.793 C194.637,2.794 194.997,2.516 195.524,2.849 C195.691,2.96 195.886,3.238 196.163,3.654 C196.386,4.071 196.663,4.459 197.052,4.765 C197.385,5.042 197.662,5.32 197.912,5.597 C198.023,5.708 197.995,5.902 197.884,6.18 C197.745,6.43 197.412,6.568 196.968,6.568 C196.496,6.568 196.107,6.596 195.83,6.624 C195.497,6.68 195.331,6.624 195.275,6.402 L195.275,6.402 Z M198.634,2.488 C198.967,2.544 199.133,2.544 199.244,2.488 C200.216,2.044 201.298,1.6 202.436,1.156 C202.575,1.101 202.686,1.128 202.741,1.184 C202.797,1.295 202.714,1.461 202.547,1.656 C202.075,2.267 201.492,2.988 200.854,3.821 C200.632,3.932 200.521,4.098 200.521,4.293 C200.466,4.515 200.326,4.57 200.133,4.432 C199.855,4.265 199.411,3.904 198.855,3.349 C198.355,2.738 198.273,2.488 198.634,2.488 L198.634,2.488 Z" id="Fill-7" sketch:type="MSShapeGroup"></path>
            <path d="M222.72,5.32 C222.941,5.375 224.912,5.042 228.715,4.265 C229.742,3.96 230.27,3.932 230.297,4.182 C230.297,4.432 230.297,4.765 230.325,5.153 C230.325,5.597 230.047,5.875 229.548,5.986 C229.131,6.125 228.715,6.235 228.299,6.374 C227.66,7.04 227.133,7.762 226.633,8.567 C226.078,9.4 225.44,10.455 224.69,11.731 C224.94,11.648 225.273,11.537 225.69,11.398 C226.605,11.065 227.189,10.898 227.466,10.898 C228.882,11.01 229.853,11.398 230.353,12.009 C230.408,12.203 230.27,12.453 229.964,12.73 C229.631,13.008 229.159,14.312 228.549,16.616 C228.493,16.838 228.437,16.977 228.326,17.033 C228.243,17.088 227.882,17.088 227.327,17.005 C227.133,17.005 226.633,17.088 225.884,17.199 C225.384,17.282 225.106,17.394 224.996,17.504 C224.885,17.615 224.718,17.449 224.496,16.977 C223.83,15.978 223.414,14.979 223.22,14.007 C222.553,14.868 221.971,15.478 221.443,15.811 C219.944,16.339 219.334,16.394 219.694,15.95 C220.027,15.534 220.61,14.84 221.526,13.841 C223.441,11.343 224.579,9.649 224.885,8.706 C225.051,8.123 225.19,7.568 225.245,7.068 C224.385,7.29 223.857,7.484 223.663,7.707 C223.469,7.984 223.191,7.623 222.858,6.652 C222.498,5.681 222.442,5.236 222.72,5.32 L222.72,5.32 Z M227.077,15.145 C227.216,14.868 227.327,14.368 227.439,13.674 C227.494,12.98 227.466,12.564 227.41,12.425 C227.244,12.37 227.05,12.398 226.8,12.481 C226.523,12.592 226.245,12.703 225.967,12.758 C225.551,12.925 225.218,13.091 225.051,13.174 C224.829,13.397 224.829,13.868 224.968,14.535 C225.079,15.256 225.218,15.672 225.384,15.811 C225.384,15.867 225.69,15.784 226.245,15.562 C226.744,15.395 227.022,15.256 227.077,15.145 L227.077,15.145 Z M237.985,23.333 C237.93,18.92 237.874,15.312 237.847,12.536 C236.709,12.675 235.709,12.841 234.849,13.008 C234.738,13.785 234.544,14.618 234.294,15.478 C233.822,16.616 233.351,17.394 232.934,17.782 C232.435,18.143 232.296,18.615 232.489,19.142 C232.601,19.503 232.212,19.919 231.324,20.363 C230.353,20.863 229.52,21.113 228.882,21.085 C228.187,21.14 228.049,20.974 228.465,20.585 C230.047,19.475 231.213,18.337 231.907,17.171 C232.518,16.033 232.934,14.784 233.128,13.369 C232.601,13.507 232.156,13.647 231.796,13.813 C231.546,13.98 231.213,13.702 230.769,12.98 C230.297,12.258 230.547,12.009 231.463,12.231 C231.99,12.065 232.629,11.925 233.322,11.731 C233.378,10.427 233.295,9.039 233.128,7.54 C232.962,7.013 233.295,6.818 234.127,6.985 C234.96,7.179 235.237,7.401 235.099,7.734 C234.933,7.957 234.904,8.817 235.016,10.343 L235.016,11.315 C235.876,11.121 236.792,10.926 237.818,10.732 L237.847,10.732 C237.791,7.845 237.735,6.18 237.708,5.681 C237.652,5.597 237.652,5.514 237.68,5.403 C237.569,5.431 237.541,5.459 237.541,5.486 C236.403,5.93 235.626,6.069 235.237,5.875 C234.738,5.681 234.072,5.764 233.184,6.097 C232.823,6.291 232.601,6.18 232.545,5.653 C232.435,5.153 232.296,4.709 232.102,4.237 C231.879,3.793 232.129,3.599 232.906,3.682 C234.683,3.571 236.292,3.294 237.68,2.849 C239.04,2.461 240.095,2.211 240.899,2.128 C241.261,2.128 241.482,2.461 241.565,3.044 C241.621,3.682 241.455,4.043 241.122,4.154 C240.65,4.32 240.178,4.487 239.762,4.626 C239.706,4.82 239.679,5.014 239.706,5.209 C239.706,7.235 239.734,8.956 239.734,10.399 C240.15,10.343 240.65,10.315 241.122,10.26 C242.177,10.149 242.787,10.038 243.009,9.927 C243.176,9.872 243.315,10.01 243.453,10.315 C243.565,10.649 243.73,10.843 243.981,10.954 C244.203,11.065 244.314,11.454 244.314,12.037 C244.258,12.675 244.064,12.897 243.73,12.675 C242.481,12.398 241.149,12.286 239.706,12.342 L239.706,12.758 C239.65,14.563 239.567,18.004 239.456,23.056 C239.456,23.777 239.54,24.276 239.706,24.526 C239.873,24.776 239.734,24.943 239.29,24.943 C238.79,25.054 238.318,25.082 237.818,24.971 C237.514,24.971 237.458,24.859 237.708,24.638 C237.93,24.416 238.013,23.972 237.985,23.333 L237.985,23.333 Z" id="Fill-8" sketch:type="MSShapeGroup"></path>
            <path d="M272.757,15.45 C273.478,16.311 274.255,18.087 275.116,20.779 C275.615,21.89 275.865,22.584 275.921,22.916 C275.144,23.139 273.589,23.25 271.175,23.194 C268.732,23.139 267.428,23.083 267.316,23.027 C266.234,22.168 265.484,21.113 265.04,19.919 C264.651,18.92 264.597,17.893 264.901,16.921 C265.18,15.95 265.318,15.339 265.346,15.006 C265.346,14.673 265.29,14.479 265.234,14.423 C265.068,14.174 264.43,14.257 263.264,14.673 C263.209,14.673 263.153,14.701 263.153,14.701 C263.098,14.896 263.042,15.09 263.015,15.256 C262.459,17.199 261.737,18.531 260.877,19.17 C259.934,19.864 259.434,20.335 259.351,20.669 C259.462,21.057 259.239,21.362 258.74,21.64 C258.185,21.918 257.519,22.195 256.658,22.445 C255.798,22.723 254.965,22.806 254.16,22.695 C253.577,22.667 253.466,22.556 253.827,22.362 C254.854,21.695 256.104,20.974 257.602,20.113 C258.768,19.419 259.739,18.365 260.571,16.949 C260.794,16.505 261.016,15.95 261.266,15.367 C261.071,15.45 260.877,15.478 260.766,15.506 C260.267,15.617 259.767,15.784 259.212,15.95 C258.629,16.172 258.185,16.366 257.907,16.533 C257.491,16.783 257.241,16.755 257.13,16.422 C256.964,16.089 256.77,15.811 256.575,15.534 C256.381,15.284 256.325,15.09 256.464,14.951 C256.491,14.896 256.77,14.868 257.269,14.84 C257.685,14.84 258.323,14.701 259.129,14.396 C259.795,14.146 260.711,13.868 261.876,13.591 C262.099,12.841 262.265,12.009 262.459,11.037 C262.459,10.288 262.653,10.01 263.069,10.205 C263.431,10.427 263.819,10.621 264.264,10.76 C264.624,10.898 264.568,11.287 264.097,11.87 C263.931,12.037 263.764,12.481 263.569,13.146 C264.124,13.008 264.568,12.897 264.901,12.814 C265.346,12.647 265.956,12.647 266.789,12.814 C267.761,12.98 268.344,13.258 268.565,13.702 C268.565,13.868 268.344,14.174 267.871,14.535 C267.316,14.979 266.845,15.895 266.428,17.254 C265.929,18.67 265.956,19.697 266.483,20.308 C266.706,20.558 267.039,20.752 267.511,20.863 C267.955,21.002 268.871,21.085 270.315,21.085 C271.702,21.113 272.507,20.807 272.673,20.141 C273.117,19.503 273.034,18.143 272.451,16.033 C272.396,15.839 272.312,15.617 272.229,15.367 C272.118,15.117 272.091,14.979 272.146,14.923 C272.201,14.868 272.396,15.062 272.757,15.45 L272.757,15.45 Z M257.602,8.095 C257.407,8.873 257.185,9.761 256.991,10.815 C256.825,11.204 256.491,11.259 256.048,10.954 C255.548,10.676 255.159,10.399 254.826,10.177 C254.493,9.955 254.549,9.677 254.993,9.372 C255.215,9.178 255.436,8.928 255.715,8.595 C255.937,8.317 256.186,8.067 256.464,7.901 C256.658,7.734 256.853,7.623 257.019,7.568 C257.935,6.985 258.129,7.179 257.602,8.095 L257.602,8.095 Z M263.236,5.014 C264.43,4.653 266.345,4.487 268.954,4.543 C269.87,4.57 270.647,4.709 271.258,4.986 C271.785,5.181 272.757,6.596 274.2,9.206 C274.366,9.899 274.255,10.205 273.895,10.038 C273.478,9.927 272.867,9.844 272.062,9.733 C271.258,9.677 270.12,9.344 268.648,8.733 C268.427,8.623 268.288,8.539 268.232,8.456 C268.288,8.567 268.177,8.956 267.927,9.594 C267.594,10.288 267.289,10.676 267.066,10.676 C266.816,10.704 266.65,10.593 266.622,10.371 C266.567,10.149 266.456,9.844 266.317,9.427 C265.567,8.067 264.957,7.013 264.568,6.208 C264.014,6.235 263.486,6.291 262.986,6.347 C262.653,6.708 262.376,7.096 262.237,7.484 C261.96,8.067 261.793,8.65 261.737,9.316 C261.682,9.677 261.71,9.982 261.82,10.205 C261.876,10.455 261.82,10.649 261.654,10.815 C260.128,11.704 258.935,12.037 258.129,11.87 C257.602,11.815 257.574,11.676 257.99,11.454 C258.602,11.121 259.239,10.649 259.989,9.927 C260.378,9.455 260.683,8.845 260.933,8.095 C261.044,7.512 261.071,7.04 261.044,6.652 C260.322,6.818 259.656,7.068 259.018,7.373 C258.795,7.484 258.629,7.346 258.518,6.902 C258.352,6.457 258.407,6.263 258.656,6.263 C259.073,6.208 259.656,6.097 260.35,5.847 C261.071,5.625 262.015,5.347 263.236,5.014 L263.236,5.014 Z M263.181,3.571 C262.736,2.738 262.57,2.017 262.709,1.434 C263.042,0.296 263.486,-0.037 264.097,0.407 C264.264,0.49 264.458,0.74 264.68,1.101 C264.901,1.489 265.207,1.794 265.567,2.044 C265.873,2.322 266.15,2.6 266.373,2.794 C266.483,2.933 266.456,3.155 266.289,3.488 C266.067,3.821 265.707,3.932 265.18,3.877 C264.624,3.849 264.18,3.849 263.819,3.877 C263.431,3.877 263.236,3.793 263.181,3.571 L263.181,3.571 Z M269.231,5.653 C268.427,5.681 267.511,5.791 266.483,5.986 C266.04,6.041 265.623,6.097 265.234,6.152 C266.373,6.79 267.316,7.512 268.121,8.29 C268.065,8.234 268.232,8.234 268.593,8.29 C269.093,8.373 269.703,8.262 270.508,7.929 C271.285,7.596 271.508,7.04 271.147,6.208 C270.702,5.791 270.065,5.597 269.231,5.653 L269.231,5.653 Z" id="Fill-9" sketch:type="MSShapeGroup"></path>
            <path d="M284.019,20.252 C285.545,18.365 286.517,16.478 286.905,14.507 C287.321,12.286 287.544,10.676 287.544,9.622 C287.488,8.567 287.433,7.651 287.404,6.846 C287.35,6.347 287.266,5.93 287.1,5.542 C286.905,5.153 286.961,4.959 287.321,4.903 C289.015,4.376 290.791,3.432 292.733,2.072 C293.012,1.767 293.262,1.767 293.483,2.072 C293.649,2.405 293.844,2.738 294.094,3.127 C294.316,3.544 294.261,3.821 293.899,3.932 C293.316,3.987 292.873,4.126 292.623,4.348 C292.29,4.57 291.291,5.07 289.598,5.847 C289.32,6.014 289.181,6.457 289.181,7.207 C289.181,7.401 289.153,7.651 289.153,7.873 C289.569,7.762 290.097,7.596 290.735,7.373 C292.262,6.846 293.233,6.68 293.733,6.846 C294.149,7.013 294.649,7.235 295.148,7.429 C295.648,7.679 295.676,7.929 295.287,8.151 C294.538,8.789 294.122,10.121 294.011,12.12 C294.177,12.703 293.816,13.008 292.873,13.036 C291.624,13.146 290.43,13.369 289.32,13.702 C288.959,13.841 288.626,13.952 288.376,14.007 C288.266,14.396 288.154,14.812 288.099,15.229 C287.987,15.617 288.016,16.033 288.182,16.478 C288.293,16.894 288.21,17.282 287.96,17.615 C286.822,19.419 285.628,20.502 284.352,20.891 C283.797,20.974 283.685,20.752 284.019,20.252 L284.019,20.252 Z M289.07,9.372 C288.959,10.399 288.848,11.398 288.709,12.37 C289.348,12.12 289.848,11.981 290.208,11.87 C290.68,11.704 291.068,11.592 291.401,11.537 C291.651,11.481 291.846,11.398 291.957,11.287 C292.123,11.065 292.29,10.621 292.456,9.899 C292.623,9.206 292.595,8.761 292.429,8.539 C292.151,8.4 291.346,8.539 290.014,9.039 C289.625,9.15 289.292,9.261 289.07,9.372 L289.07,9.372 Z M301.172,23.333 C301.172,15.534 301.116,11.315 301.06,10.621 C299.756,10.843 298.729,11.093 298.008,11.37 C297.897,11.426 297.814,11.454 297.758,11.398 C297.535,12.758 297.258,14.09 296.897,15.339 C296.786,15.811 296.842,16.311 297.064,16.755 C297.231,17.254 297.147,17.699 296.815,18.032 C295.565,19.892 294.232,21.002 292.873,21.307 C292.234,21.39 292.096,21.168 292.512,20.585 C294.232,18.698 295.315,16.727 295.787,14.673 C296.259,12.592 296.536,10.954 296.592,9.761 C296.592,9.566 296.592,9.372 296.62,9.206 C296.62,8.04 296.565,7.013 296.509,6.125 C296.509,5.569 296.397,5.098 296.203,4.709 C296.009,4.32 296.065,4.098 296.397,3.987 C298.257,3.654 300.311,2.849 302.587,1.6 C302.976,1.323 303.226,1.351 303.42,1.711 C303.586,2.1 303.78,2.544 304.03,3.016 C304.253,3.516 304.142,3.821 303.697,3.904 C303.114,3.904 302.615,4.015 302.254,4.182 C301.894,4.404 300.81,4.82 298.951,5.403 C298.479,5.514 298.229,5.875 298.202,6.457 C298.147,7.484 298.062,8.512 298.008,9.511 C299.146,9.178 300.478,8.817 302.032,8.428 C302.864,8.262 303.614,8.123 304.363,8.012 C305.085,7.929 305.502,7.845 305.668,7.762 C305.835,7.707 305.974,7.845 306.14,8.151 C306.251,8.484 306.445,8.678 306.695,8.789 C306.917,8.9 307.028,9.289 307.056,9.899 C307.056,10.565 306.861,10.788 306.501,10.565 C305.474,10.343 304.308,10.288 303.059,10.371 C303.059,12.592 303.031,14.34 302.976,15.589 C302.864,16.894 302.754,19.419 302.615,23.083 C302.615,23.777 302.698,24.276 302.864,24.526 C302.976,24.776 302.837,24.943 302.421,24.971 C301.949,25.054 301.449,25.054 300.978,24.971 C300.672,24.971 300.616,24.859 300.839,24.665 C301.06,24.443 301.172,23.999 301.172,23.333 L301.172,23.333 Z" id="Fill-10" sketch:type="MSShapeGroup"></path>
            <path d="M4.498,36.06 C5.037,36.186 5.46,36.43 5.766,36.794 C6.072,37.157 6.225,37.589 6.225,38.09 C6.225,38.825 5.958,39.41 5.425,39.846 C4.891,40.282 4.249,40.5 3.5,40.5 L1.199,40.5 L1.199,32.405 L3.442,32.405 C4.223,32.405 4.833,32.576 5.272,32.918 C5.712,33.261 5.933,33.744 5.933,34.367 C5.933,34.749 5.805,35.09 5.551,35.388 C5.297,35.687 4.945,35.902 4.498,36.036 L4.498,36.06 L4.498,36.06 Z M2.14,35.623 L3.241,35.623 C4.393,35.623 4.969,35.212 4.969,34.39 C4.969,34.015 4.827,33.727 4.544,33.526 C4.261,33.326 3.846,33.225 3.299,33.225 L2.14,33.225 L2.14,35.623 L2.14,35.623 Z M2.14,39.68 L3.207,39.68 C3.83,39.68 4.325,39.538 4.69,39.255 C5.056,38.972 5.238,38.584 5.238,38.09 C5.238,37.566 5.059,37.161 4.699,36.874 C4.339,36.587 3.819,36.444 3.139,36.444 L2.14,36.444 L2.14,39.68 L2.14,39.68 Z" id="Fill-11" sketch:type="MSShapeGroup"></path>
            <path d="M12.748,40.5 L8.52,40.5 L8.52,32.405 L12.714,32.405 L12.714,33.225 L9.461,33.225 L9.461,35.732 L12.587,35.732 L12.587,36.553 L9.461,36.553 L9.461,39.68 L12.748,39.68 L12.748,40.5" id="Fill-12" sketch:type="MSShapeGroup"></path>
            <path d="M19.427,40.5 L15.749,40.5 L15.749,39.68 L17.144,39.68 L17.144,33.225 L15.749,33.225 L15.749,32.405 L19.427,32.405 L19.427,33.225 L18.084,33.225 L18.084,39.68 L19.427,39.68 L19.427,40.5" id="Fill-13" sketch:type="MSShapeGroup"></path>
            <path d="M26.122,38.349 C26.122,39.091 25.928,39.661 25.539,40.058 C25.151,40.456 24.582,40.655 23.833,40.655 C23.179,40.655 22.584,40.518 22.048,40.242 L22.329,39.49 C22.784,39.716 23.285,39.829 23.833,39.829 C24.307,39.829 24.65,39.704 24.862,39.453 C25.075,39.203 25.181,38.812 25.181,38.28 L25.181,32.405 L26.122,32.405 L26.122,38.349" id="Fill-14" sketch:type="MSShapeGroup"></path>
            <path d="M33.529,40.5 L29.852,40.5 L29.852,39.68 L31.246,39.68 L31.246,33.225 L29.852,33.225 L29.852,32.405 L33.529,32.405 L33.529,33.225 L32.187,33.225 L32.187,39.68 L33.529,39.68 L33.529,40.5" id="Fill-15" sketch:type="MSShapeGroup"></path>
            <path d="M41.223,40.5 L40.179,40.5 L37.275,34.108 L37.275,40.5 L36.334,40.5 L36.334,32.405 L37.385,32.405 L40.299,38.739 L40.299,32.405 L41.223,32.405 L41.223,40.5" id="Fill-16" sketch:type="MSShapeGroup"></path>
            <path d="M48.439,39.926 C47.778,40.412 47.046,40.655 46.242,40.655 C45.19,40.655 44.393,40.298 43.85,39.585 C43.307,38.872 43.035,37.829 43.035,36.455 C43.035,35.128 43.298,34.095 43.824,33.357 C44.35,32.619 45.156,32.25 46.242,32.25 C46.633,32.25 47.019,32.299 47.401,32.399 C47.784,32.498 48.092,32.63 48.325,32.795 L48.016,33.535 C47.476,33.229 46.885,33.076 46.242,33.076 C45.5,33.076 44.946,33.348 44.581,33.891 C44.216,34.434 44.033,35.289 44.033,36.455 C44.033,38.704 44.77,39.829 46.242,39.829 C46.797,39.829 47.216,39.712 47.499,39.479 L47.499,37.482 L46.042,37.482 L46.042,36.668 L48.439,36.668 L48.439,39.926" id="Fill-17" sketch:type="MSShapeGroup"></path>
            <path d="M63.145,40.5 L61.969,40.5 L59.594,36.822 L58.549,36.822 L58.549,40.5 L57.608,40.5 L57.608,32.405 L59.897,32.405 C60.666,32.405 61.273,32.591 61.719,32.964 C62.165,33.337 62.388,33.856 62.388,34.522 C62.388,35.015 62.225,35.454 61.899,35.838 C61.574,36.223 61.127,36.484 60.558,36.622 L63.145,40.5 L63.145,40.5 Z M58.549,36.002 L59.737,36.002 C60.234,36.002 60.638,35.867 60.947,35.598 C61.257,35.328 61.412,34.988 61.412,34.579 C61.412,33.676 60.861,33.225 59.76,33.225 L58.549,33.225 L58.549,36.002 L58.549,36.002 Z" id="Fill-18" sketch:type="MSShapeGroup"></path>
            <path d="M69.157,40.5 L64.929,40.5 L64.929,32.405 L69.123,32.405 L69.123,33.225 L65.87,33.225 L65.87,35.732 L68.996,35.732 L68.996,36.553 L65.87,36.553 L65.87,39.68 L69.157,39.68 L69.157,40.5" id="Fill-19" sketch:type="MSShapeGroup"></path>
            <path d="M75.762,33.3 C75.279,33.135 74.822,33.053 74.391,33.053 C73.9,33.053 73.502,33.165 73.194,33.389 C72.886,33.612 72.732,33.931 72.732,34.344 C72.732,34.834 73.136,35.264 73.942,35.635 C74.539,35.91 74.935,36.102 75.127,36.209 C75.32,36.315 75.517,36.463 75.716,36.65 C75.914,36.838 76.074,37.059 76.194,37.313 C76.315,37.567 76.375,37.853 76.375,38.171 C76.375,38.959 76.11,39.57 75.581,40.004 C75.051,40.438 74.427,40.655 73.707,40.655 C73.011,40.655 72.401,40.518 71.877,40.242 L72.072,39.433 C72.689,39.712 73.226,39.852 73.685,39.852 C74.22,39.852 74.649,39.713 74.973,39.436 C75.296,39.159 75.457,38.777 75.457,38.291 C75.457,37.932 75.352,37.627 75.142,37.376 C74.932,37.126 74.543,36.87 73.977,36.61 C73.396,36.342 73.02,36.16 72.85,36.062 C72.68,35.965 72.51,35.83 72.342,35.658 C72.174,35.485 72.044,35.293 71.952,35.078 C71.86,34.864 71.815,34.631 71.815,34.378 C71.815,33.709 72.055,33.187 72.537,32.812 C73.019,32.437 73.629,32.25 74.367,32.25 C74.906,32.25 75.442,32.332 75.974,32.497 L75.762,33.3" id="Fill-20" sketch:type="MSShapeGroup"></path>
            <path d="M83.26,40.5 L79.031,40.5 L79.031,32.405 L83.226,32.405 L83.226,33.225 L79.973,33.225 L79.973,35.732 L83.099,35.732 L83.099,36.553 L79.973,36.553 L79.973,39.68 L83.26,39.68 L83.26,40.5" id="Fill-21" sketch:type="MSShapeGroup"></path>
            <path d="M91.36,40.5 L90.373,40.5 L89.479,37.666 L86.822,37.666 L85.916,40.5 L84.94,40.5 L87.585,32.405 L88.716,32.405 L91.36,40.5 L91.36,40.5 Z M89.209,36.845 L88.148,33.495 L87.092,36.845 L89.209,36.845 L89.209,36.845 Z" id="Fill-22" sketch:type="MSShapeGroup"></path>
            <path d="M98.4,40.5 L97.225,40.5 L94.85,36.822 L93.805,36.822 L93.805,40.5 L92.864,40.5 L92.864,32.405 L95.153,32.405 C95.922,32.405 96.529,32.591 96.975,32.964 C97.421,33.337 97.644,33.856 97.644,34.522 C97.644,35.015 97.48,35.454 97.155,35.838 C96.83,36.223 96.383,36.484 95.814,36.622 L98.4,40.5 L98.4,40.5 Z M93.805,36.002 L94.993,36.002 C95.49,36.002 95.894,35.867 96.203,35.598 C96.513,35.328 96.668,34.988 96.668,34.579 C96.668,33.676 96.117,33.225 95.016,33.225 L93.805,33.225 L93.805,36.002 L93.805,36.002 Z" id="Fill-23" sketch:type="MSShapeGroup"></path>
            <path d="M104.86,39.995 C104.226,40.435 103.489,40.655 102.651,40.655 C101.604,40.655 100.807,40.295 100.262,39.576 C99.717,38.857 99.444,37.817 99.444,36.455 C99.444,35.14 99.708,34.11 100.236,33.366 C100.764,32.622 101.569,32.25 102.651,32.25 C103.042,32.25 103.428,32.299 103.811,32.399 C104.193,32.498 104.501,32.63 104.734,32.795 L104.425,33.535 C103.885,33.229 103.294,33.076 102.651,33.076 C101.905,33.076 101.352,33.347 100.987,33.888 C100.624,34.429 100.442,35.285 100.442,36.455 C100.442,38.704 101.179,39.829 102.651,39.829 C103.275,39.829 103.914,39.638 104.567,39.255 L104.86,39.995" id="Fill-24" sketch:type="MSShapeGroup"></path>
            <path d="M111.619,40.5 L110.679,40.5 L110.679,36.484 L107.907,36.484 L107.907,40.5 L106.967,40.5 L106.967,32.405 L107.907,32.405 L107.907,35.658 L110.679,35.658 L110.679,32.405 L111.619,32.405 L111.619,40.5" id="Fill-25" sketch:type="MSShapeGroup"></path>
            <path d="M125.193,40.5 L121.516,40.5 L121.516,39.68 L122.91,39.68 L122.91,33.225 L121.516,33.225 L121.516,32.405 L125.193,32.405 L125.193,33.225 L123.851,33.225 L123.851,39.68 L125.193,39.68 L125.193,40.5" id="Fill-26" sketch:type="MSShapeGroup"></path>
            <path d="M132.888,40.5 L131.844,40.5 L128.94,34.108 L128.94,40.5 L127.999,40.5 L127.999,32.405 L129.05,32.405 L131.964,38.739 L131.964,32.405 L132.888,32.405 L132.888,40.5" id="Fill-27" sketch:type="MSShapeGroup"></path>
            <path d="M139.222,33.3 C138.739,33.135 138.282,33.053 137.851,33.053 C137.36,33.053 136.962,33.165 136.654,33.389 C136.346,33.612 136.192,33.931 136.192,34.344 C136.192,34.834 136.596,35.264 137.402,35.635 C137.999,35.91 138.395,36.102 138.587,36.209 C138.78,36.315 138.977,36.463 139.176,36.65 C139.374,36.838 139.534,37.059 139.654,37.313 C139.775,37.567 139.835,37.853 139.835,38.171 C139.835,38.959 139.57,39.57 139.041,40.004 C138.511,40.438 137.887,40.655 137.167,40.655 C136.471,40.655 135.861,40.518 135.337,40.242 L135.532,39.433 C136.148,39.712 136.686,39.852 137.145,39.852 C137.68,39.852 138.109,39.713 138.433,39.436 C138.756,39.159 138.917,38.777 138.917,38.291 C138.917,37.932 138.811,37.627 138.602,37.376 C138.392,37.126 138.003,36.87 137.436,36.61 C136.855,36.342 136.48,36.16 136.31,36.062 C136.14,35.965 135.97,35.83 135.802,35.658 C135.634,35.485 135.504,35.293 135.412,35.078 C135.32,34.864 135.274,34.631 135.274,34.378 C135.274,33.709 135.515,33.187 135.997,32.812 C136.479,32.437 137.089,32.25 137.827,32.25 C138.366,32.25 138.902,32.332 139.434,32.497 L139.222,33.3" id="Fill-28" sketch:type="MSShapeGroup"></path>
            <path d="M147.523,33.168 L145.028,33.168 L145.028,40.5 L144.093,40.5 L144.093,33.168 L141.586,33.168 L141.586,32.405 L147.523,32.405 L147.523,33.168" id="Fill-29" sketch:type="MSShapeGroup"></path>
            <path d="M153.398,40.5 L149.721,40.5 L149.721,39.68 L151.115,39.68 L151.115,33.225 L149.721,33.225 L149.721,32.405 L153.398,32.405 L153.398,33.225 L152.056,33.225 L152.056,39.68 L153.398,39.68 L153.398,40.5" id="Fill-30" sketch:type="MSShapeGroup"></path>
            <path d="M161.625,33.168 L159.13,33.168 L159.13,40.5 L158.194,40.5 L158.194,33.168 L155.688,33.168 L155.688,32.405 L161.625,32.405 L161.625,33.168" id="Fill-31" sketch:type="MSShapeGroup"></path>
            <path d="M168.028,37.953 C168.028,38.89 167.839,39.574 167.458,40.007 C167.077,40.439 166.499,40.655 165.723,40.655 C164.158,40.655 163.376,39.762 163.376,37.976 L163.376,32.405 L164.316,32.405 L164.316,37.89 C164.316,39.183 164.785,39.829 165.723,39.829 C166.192,39.829 166.538,39.676 166.758,39.37 C166.977,39.064 167.088,38.566 167.088,37.878 L167.088,32.405 L168.028,32.405 L168.028,37.953" id="Fill-32" sketch:type="MSShapeGroup"></path>
            <path d="M175.727,33.168 L173.232,33.168 L173.232,40.5 L172.297,40.5 L172.297,33.168 L169.79,33.168 L169.79,32.405 L175.727,32.405 L175.727,33.168" id="Fill-33" sketch:type="MSShapeGroup"></path>
            <path d="M181.976,40.5 L177.747,40.5 L177.747,32.405 L181.941,32.405 L181.941,33.225 L178.689,33.225 L178.689,35.732 L181.814,35.732 L181.814,36.553 L178.689,36.553 L178.689,39.68 L181.976,39.68 L181.976,40.5" id="Fill-34" sketch:type="MSShapeGroup"></path>
            <path d="M193.893,32.25 C194.799,32.25 195.49,32.608 195.966,33.326 C196.442,34.043 196.681,35.086 196.681,36.455 C196.681,37.817 196.443,38.857 195.969,39.576 C195.495,40.295 194.803,40.655 193.893,40.655 C192.989,40.655 192.3,40.296 191.824,39.579 C191.348,38.862 191.109,37.821 191.109,36.455 C191.109,35.09 191.347,34.047 191.821,33.328 C192.295,32.609 192.985,32.25 193.893,32.25 L193.893,32.25 Z M193.893,39.829 C195.086,39.829 195.682,38.704 195.682,36.455 C195.682,34.203 195.086,33.076 193.893,33.076 C193.311,33.076 192.868,33.368 192.564,33.951 C192.26,34.534 192.107,35.369 192.107,36.455 C192.107,37.553 192.259,38.39 192.561,38.965 C192.863,39.541 193.307,39.829 193.893,39.829 L193.893,39.829 Z" id="Fill-35" sketch:type="MSShapeGroup"></path>
            <path d="M203.191,33.225 L199.842,33.225 L199.842,35.87 L202.894,35.87 L202.894,36.69 L199.842,36.69 L199.842,40.5 L198.9,40.5 L198.9,32.405 L203.191,32.405 L203.191,33.225" id="Fill-36" sketch:type="MSShapeGroup"></path>
            <path d="M216.784,33.3 C216.302,33.135 215.845,33.053 215.413,33.053 C214.923,33.053 214.524,33.165 214.217,33.389 C213.908,33.612 213.755,33.931 213.755,34.344 C213.755,34.834 214.158,35.264 214.965,35.635 C215.561,35.91 215.957,36.102 216.149,36.209 C216.343,36.315 216.539,36.463 216.738,36.65 C216.937,36.838 217.097,37.059 217.217,37.313 C217.338,37.567 217.398,37.853 217.398,38.171 C217.398,38.959 217.133,39.57 216.603,40.004 C216.073,40.438 215.449,40.655 214.73,40.655 C214.033,40.655 213.424,40.518 212.899,40.242 L213.095,39.433 C213.711,39.712 214.248,39.852 214.707,39.852 C215.242,39.852 215.672,39.713 215.995,39.436 C216.318,39.159 216.48,38.777 216.48,38.291 C216.48,37.932 216.374,37.627 216.164,37.376 C215.954,37.126 215.565,36.87 214.999,36.61 C214.418,36.342 214.042,36.16 213.872,36.062 C213.702,35.965 213.532,35.83 213.364,35.658 C213.196,35.485 213.066,35.293 212.975,35.078 C212.883,34.864 212.837,34.631 212.837,34.378 C212.837,33.709 213.077,33.187 213.56,32.812 C214.041,32.437 214.651,32.25 215.39,32.25 C215.929,32.25 216.465,32.332 216.996,32.497 L216.784,33.3" id="Fill-37" sketch:type="MSShapeGroup"></path>
            <path d="M220.055,32.405 L222.108,32.405 C222.885,32.405 223.507,32.6 223.974,32.99 C224.439,33.38 224.673,33.918 224.673,34.602 C224.673,35.29 224.44,35.84 223.977,36.252 C223.512,36.663 222.902,36.868 222.148,36.868 L220.996,36.868 L220.996,40.5 L220.055,40.5 L220.055,32.405 L220.055,32.405 Z M220.996,36.048 L222.017,36.048 C223.122,36.048 223.675,35.585 223.675,34.659 C223.675,34.231 223.524,33.885 223.225,33.621 C222.924,33.357 222.537,33.225 222.062,33.225 L220.996,33.225 L220.996,36.048 L220.996,36.048 Z" id="Fill-38" sketch:type="MSShapeGroup"></path>
            <path d="M229.148,32.25 C230.055,32.25 230.746,32.608 231.222,33.326 C231.698,34.043 231.937,35.086 231.937,36.455 C231.937,37.817 231.699,38.857 231.225,39.576 C230.751,40.295 230.059,40.655 229.148,40.655 C228.245,40.655 227.556,40.296 227.08,39.579 C226.603,38.862 226.365,37.821 226.365,36.455 C226.365,35.09 226.603,34.047 227.077,33.328 C227.551,32.609 228.241,32.25 229.148,32.25 L229.148,32.25 Z M229.148,39.829 C230.342,39.829 230.938,38.704 230.938,36.455 C230.938,34.203 230.342,33.076 229.148,33.076 C228.566,33.076 228.124,33.368 227.819,33.951 C227.516,34.534 227.363,35.369 227.363,36.455 C227.363,37.553 227.515,38.39 227.816,38.965 C228.119,39.541 228.562,39.829 229.148,39.829 L229.148,39.829 Z" id="Fill-39" sketch:type="MSShapeGroup"></path>
            <path d="M239.423,40.5 L238.247,40.5 L235.872,36.822 L234.827,36.822 L234.827,40.5 L233.887,40.5 L233.887,32.405 L236.176,32.405 C236.944,32.405 237.552,32.591 237.997,32.964 C238.443,33.337 238.666,33.856 238.666,34.522 C238.666,35.015 238.503,35.454 238.178,35.838 C237.853,36.223 237.405,36.484 236.836,36.622 L239.423,40.5 L239.423,40.5 Z M234.827,36.002 L236.016,36.002 C236.513,36.002 236.916,35.867 237.226,35.598 C237.535,35.328 237.69,34.988 237.69,34.579 C237.69,33.676 237.14,33.225 236.038,33.225 L234.827,33.225 L234.827,36.002 L234.827,36.002 Z" id="Fill-40" sketch:type="MSShapeGroup"></path>
            <path d="M246.239,33.168 L243.744,33.168 L243.744,40.5 L242.809,40.5 L242.809,33.168 L240.302,33.168 L240.302,32.405 L246.239,32.405 L246.239,33.168" id="Fill-41" sketch:type="MSShapeGroup"></path>
            <path d="M252.04,33.3 C251.558,33.135 251.101,33.053 250.669,33.053 C250.179,33.053 249.78,33.165 249.473,33.389 C249.164,33.612 249.011,33.931 249.011,34.344 C249.011,34.834 249.414,35.264 250.221,35.635 C250.817,35.91 251.213,36.102 251.405,36.209 C251.599,36.315 251.795,36.463 251.994,36.65 C252.192,36.838 252.353,37.059 252.473,37.313 C252.594,37.567 252.653,37.853 252.653,38.171 C252.653,38.959 252.389,39.57 251.859,40.004 C251.329,40.438 250.705,40.655 249.985,40.655 C249.289,40.655 248.68,40.518 248.155,40.242 L248.351,39.433 C248.967,39.712 249.504,39.852 249.963,39.852 C250.498,39.852 250.928,39.713 251.251,39.436 C251.574,39.159 251.735,38.777 251.735,38.291 C251.735,37.932 251.63,37.627 251.42,37.376 C251.21,37.126 250.821,36.87 250.255,36.61 C249.674,36.342 249.298,36.16 249.128,36.062 C248.958,35.965 248.788,35.83 248.62,35.658 C248.452,35.485 248.322,35.293 248.23,35.078 C248.139,34.864 248.093,34.631 248.093,34.378 C248.093,33.709 248.333,33.187 248.815,32.812 C249.297,32.437 249.907,32.25 250.646,32.25 C251.185,32.25 251.721,32.332 252.252,32.497 L252.04,33.3" id="Fill-42" sketch:type="MSShapeGroup"></path>
            <path d="M266.143,33.3 C265.66,33.135 265.203,33.053 264.772,33.053 C264.281,33.053 263.883,33.165 263.575,33.389 C263.267,33.612 263.113,33.931 263.113,34.344 C263.113,34.834 263.517,35.264 264.323,35.635 C264.92,35.91 265.315,36.102 265.508,36.209 C265.701,36.315 265.898,36.463 266.097,36.65 C266.295,36.838 266.455,37.059 266.575,37.313 C266.696,37.567 266.756,37.853 266.756,38.171 C266.756,38.959 266.491,39.57 265.962,40.004 C265.432,40.438 264.808,40.655 264.088,40.655 C263.392,40.655 262.782,40.518 262.258,40.242 L262.453,39.433 C263.069,39.712 263.606,39.852 264.065,39.852 C264.601,39.852 265.03,39.713 265.353,39.436 C265.677,39.159 265.838,38.777 265.838,38.291 C265.838,37.932 265.732,37.627 265.523,37.376 C265.312,37.126 264.924,36.87 264.357,36.61 C263.776,36.342 263.4,36.16 263.23,36.062 C263.06,35.965 262.891,35.83 262.723,35.658 C262.555,35.485 262.425,35.293 262.333,35.078 C262.241,34.864 262.195,34.631 262.195,34.378 C262.195,33.709 262.435,33.187 262.918,32.812 C263.399,32.437 264.01,32.25 264.748,32.25 C265.287,32.25 265.823,32.332 266.354,32.497 L266.143,33.3" id="Fill-43" sketch:type="MSShapeGroup"></path>
            <path d="M274.088,39.995 C273.453,40.435 272.717,40.655 271.879,40.655 C270.831,40.655 270.034,40.295 269.489,39.576 C268.944,38.857 268.672,37.817 268.672,36.455 C268.672,35.14 268.935,34.11 269.464,33.366 C269.991,32.622 270.797,32.25 271.879,32.25 C272.27,32.25 272.655,32.299 273.038,32.399 C273.421,32.498 273.729,32.63 273.962,32.795 L273.652,33.535 C273.112,33.229 272.522,33.076 271.879,33.076 C271.133,33.076 270.579,33.347 270.215,33.888 C269.852,34.429 269.67,35.285 269.67,36.455 C269.67,38.704 270.406,39.829 271.879,39.829 C272.503,39.829 273.142,39.638 273.795,39.255 L274.088,39.995" id="Fill-44" sketch:type="MSShapeGroup"></path>
            <path d="M280.319,40.5 L276.642,40.5 L276.642,39.68 L278.036,39.68 L278.036,33.225 L276.642,33.225 L276.642,32.405 L280.319,32.405 L280.319,33.225 L278.977,33.225 L278.977,39.68 L280.319,39.68 L280.319,40.5" id="Fill-45" sketch:type="MSShapeGroup"></path>
            <path d="M287.743,40.5 L283.515,40.5 L283.515,32.405 L287.709,32.405 L287.709,33.225 L284.456,33.225 L284.456,35.732 L287.582,35.732 L287.582,36.553 L284.456,36.553 L284.456,39.68 L287.743,39.68 L287.743,40.5" id="Fill-46" sketch:type="MSShapeGroup"></path>
            <path d="M295.064,40.5 L294.02,40.5 L291.116,34.108 L291.116,40.5 L290.175,40.5 L290.175,32.405 L291.226,32.405 L294.14,38.739 L294.14,32.405 L295.064,32.405 L295.064,40.5" id="Fill-47" sketch:type="MSShapeGroup"></path>
            <path d="M302.293,39.995 C301.658,40.435 300.922,40.655 300.084,40.655 C299.036,40.655 298.239,40.295 297.694,39.576 C297.149,38.857 296.877,37.817 296.877,36.455 C296.877,35.14 297.141,34.11 297.669,33.366 C298.196,32.622 299.002,32.25 300.084,32.25 C300.475,32.25 300.86,32.299 301.243,32.399 C301.626,32.498 301.934,32.63 302.167,32.795 L301.857,33.535 C301.317,33.229 300.727,33.076 300.084,33.076 C299.338,33.076 298.784,33.347 298.42,33.888 C298.057,34.429 297.875,35.285 297.875,36.455 C297.875,38.704 298.611,39.829 300.084,39.829 C300.708,39.829 301.347,39.638 302,39.255 L302.293,39.995" id="Fill-48" sketch:type="MSShapeGroup"></path>
            <path d="M308.897,40.5 L304.668,40.5 L304.668,32.405 L308.862,32.405 L308.862,33.225 L305.609,33.225 L305.609,35.732 L308.735,35.732 L308.735,36.553 L305.609,36.553 L305.609,39.68 L308.897,39.68 L308.897,40.5" id="Fill-49" sketch:type="MSShapeGroup"></path>
        </g>
    </g>
</svg>