<?xml version="1.0" encoding="UTF-8" standalone="no"?>
<svg width="27px" height="28px" viewBox="0 0 27 28" version="1.1" xmlns="http://www.w3.org/2000/svg" xmlns:xlink="http://www.w3.org/1999/xlink">
    <!-- Generator: Sketch 3.7.2 (28276) - http://www.bohemiancoding.com/sketch -->
    <title>Page 1</title>
    <desc>Created with Sketch.</desc>
    <defs></defs>
    <g id="Page-1" stroke="none" stroke-width="1" fill="none" fill-rule="evenodd">
        <path d="M20.141,26.9403 L25.422,26.9403 L25.422,21.9633 L20.141,21.9633 L20.141,26.9403 Z M13.794,26.9403 L19.067,26.9403 L19.067,21.9633 L13.794,21.9633 L13.794,26.9403 Z M7.436,26.9403 L12.72,26.9403 L12.72,21.9633 L7.436,21.9633 L7.436,26.9403 Z M1.076,26.9403 L6.36,26.9403 L6.36,21.9633 L1.076,21.9633 L1.076,26.9403 Z M1.076,4.9973 C1.076,4.4553 1.545,4.0103 2.14,4.0063 L3.183,4.0063 L3.183,4.9973 C3.183,6.1023 4.133,6.9993 5.307,6.9993 C6.478,6.9993 7.431,6.1023 7.431,4.9973 L7.431,4.0063 L19.067,4.0063 L19.067,4.9973 C19.067,6.1023 20.02,6.9993 21.192,6.9993 C22.365,6.9993 23.318,6.1023 23.318,4.9973 L23.318,4.0063 L24.377,4.0063 C24.953,4.0103 25.422,4.4553 25.422,4.9973 L25.422,8.9803 L19.687,8.9803 L19.603,8.9803 L19.523,8.9803 L13.343,8.9803 L13.258,8.9803 L13.176,8.9803 L6.898,8.9803 L1.076,8.9803 L1.076,4.9973 Z M4.256,2.0023 C4.256,1.4563 4.725,1.0133 5.307,1.0133 C5.886,1.0133 6.355,1.4563 6.355,2.0023 L6.355,3.4993 L6.355,4.9973 C6.355,5.5443 5.886,5.9873 5.307,5.9873 C4.725,5.9873 4.256,5.5443 4.256,4.9973 L4.256,3.4993 L4.256,2.0023 Z M20.141,2.0023 C20.141,1.4563 20.612,1.0133 21.192,1.0133 C21.771,1.0133 22.239,1.4563 22.239,2.0023 L22.239,3.4993 L22.239,4.9973 C22.239,5.5443 21.771,5.9873 21.192,5.9873 C20.612,5.9873 20.141,5.5443 20.141,4.9973 L20.141,3.4993 L20.141,2.0023 Z M20.141,20.9503 L25.422,20.9503 L25.422,15.9723 L20.141,15.9723 L20.141,20.9503 Z M13.794,20.9503 L19.067,20.9503 L19.067,15.9723 L13.794,15.9723 L13.794,20.9503 Z M7.436,20.9503 L12.72,20.9503 L12.72,15.9723 L7.436,15.9723 L7.436,20.9503 Z M1.076,20.9503 L6.36,20.9503 L6.36,15.9723 L1.076,15.9723 L1.076,20.9503 Z M1.076,14.9593 L6.36,14.9593 L6.36,9.9923 L1.076,9.9923 L1.076,14.9593 Z M20.141,14.9593 L25.422,14.9593 L25.422,9.9923 L20.141,9.9923 L20.141,14.9593 Z M13.794,14.9593 L19.067,14.9593 L19.067,9.9923 L13.794,9.9923 L13.794,14.9593 Z M7.436,14.9593 L12.72,14.9593 L12.72,9.9923 L7.436,9.9923 L7.436,14.9593 Z M24.359,2.9923 L23.318,2.9923 L23.318,2.0023 C23.318,0.8983 22.365,0.0003 21.192,0.0003 C20.02,0.0003 19.067,0.8983 19.067,2.0023 L19.067,2.9923 L7.431,2.9923 L7.431,2.0023 C7.431,0.8983 6.478,0.0003 5.307,0.0003 C4.133,0.0003 3.183,0.8983 3.183,2.0023 L3.183,2.9923 L2.114,2.9923 C0.951,3.0013 0,3.8993 0,4.9973 L0,9.4863 L0,15.4663 L0,21.4573 L0,27.4473 C0,27.7263 0.243,27.9543 0.538,27.9543 L6.898,27.9543 L13.258,27.9543 L19.603,27.9543 L25.96,27.9543 C26.255,27.9543 26.496,27.7263 26.496,27.4473 L26.496,21.4573 L26.496,15.4663 L26.496,9.4863 L26.496,4.9973 C26.496,3.8993 25.548,3.0013 24.359,2.9923 L24.359,2.9923 Z" fill="#FFFFFF"></path>
    </g>
</svg>