<?xml version="1.0" encoding="UTF-8" standalone="no"?>
<svg width="492px" height="106px" viewBox="0 0 492 106" version="1.1" xmlns="http://www.w3.org/2000/svg" xmlns:xlink="http://www.w3.org/1999/xlink" xmlns:sketch="http://www.bohemiancoding.com/sketch/ns">
    <!-- Generator: Sketch 3.0.2 (7799) - http://www.bohemiancoding.com/sketch -->
    <title>Imported Layers</title>
    <description>Created with Sketch.</description>
    <defs></defs>
    <g id="Page-1" stroke="none" stroke-width="1" fill="none" fill-rule="evenodd" sketch:type="MSPage">
        <g id="Imported-Layers" sketch:type="MSLayerGroup" transform="translate(1.000000, 0.000000)">
            <path d="M45.784,105.299 L0.412,79.004 L0.499,26.563 L45.957,0.417 L91.329,26.713 L91.243,79.154 L45.784,105.299" id="Fill-1" fill="rgba(107, 106, 106, 0.2)" sketch:type="MSShapeGroup"></path>
            <path d="M65.192,65.544 L91.243,79.154 L65.192,65.544 Z M26.063,66.049 L0.412,79.004 L26.063,66.049 Z M45.923,31.474 L45.957,0.417 L45.923,31.474 Z M25.629,66.287 L45.875,31.352 L66.007,66.354 L25.629,66.287 L25.629,66.287 Z" id="Stroke-2" stroke="#FFFFFF" stroke-width="2.5" sketch:type="MSShapeGroup"></path>
            <path d="M159.981,62.119 L191.38,40.218 L159.859,40.218 L159.859,32.917 L196.729,32.917 C200.761,32.917 204.03,36.186 204.03,40.218 L172.759,62.119 L204.152,62.119 L204.152,69.42 L167.282,69.42 C163.25,69.42 159.981,66.151 159.981,62.119" id="Fill-3" fill="rgba(26, 25, 24, 0.2)" sketch:type="MSShapeGroup"></path>
            <path d="M152.558,69.42 L152.558,62.119 L115.687,62.119 L115.687,54.819 L152.558,54.819 L152.558,47.518 L115.687,47.518 L115.687,40.218 L152.558,40.218 L152.558,32.917 L115.675,32.917 C111.65,32.917 108.387,36.18 108.387,40.205 L108.387,62.095 C108.387,66.14 111.666,69.42 115.712,69.42 L152.558,69.42" id="Fill-4" fill="rgba(26, 25, 24, 0.2)" sketch:type="MSShapeGroup"></path>
            <path d="M240.778,62.119 L240.778,69.42 L277.624,69.42 C281.669,69.42 284.949,66.14 284.949,62.095 L284.949,54.843 C284.949,50.798 281.669,47.518 277.624,47.518 L248.078,47.518 L248.078,40.218 L284.949,40.218 L284.949,32.917 L248.078,32.917 C244.046,32.917 240.778,36.186 240.778,40.218 L240.778,47.494 C240.778,51.539 244.057,54.819 248.103,54.819 L277.863,54.819 L277.863,62.139 L240.778,62.119" id="Fill-5" fill="rgba(26, 25, 24, 0.2)" sketch:type="MSShapeGroup"></path>
            <path d="M439.609,40.156 L402.739,40.156 L402.739,69.358 L395.438,69.358 L395.438,40.181 C395.438,36.135 398.718,32.856 402.763,32.856 L439.609,32.856" id="Fill-6" fill="rgba(26, 25, 24, 0.2)" sketch:type="MSShapeGroup"></path>
            <path d="M454.088,21.706 L454.036,62.257 L490.6,62.298 L490.59,69.598 L454.051,69.558 C450.005,69.552 446.73,66.268 446.736,62.223 L446.787,21.696" id="Fill-7" fill="rgba(26, 25, 24, 0.2)" sketch:type="MSShapeGroup"></path>
            <path d="M381.242,32.917 L351.721,32.917 C347.675,32.917 344.396,36.197 344.396,40.242 L344.396,62.095 C344.396,66.14 347.675,69.42 351.721,69.42 L381.242,69.42 C385.288,69.42 388.567,66.14 388.567,62.095 L388.567,40.242 C388.567,36.197 385.288,32.917 381.242,32.917 L381.242,32.917 Z M351.696,40.218 L381.481,40.218 L381.481,62.12 L351.696,62.12 L351.696,40.218 Z" id="Fill-8" fill="rgba(26, 25, 24, 0.2)" sketch:type="MSShapeGroup"></path>
            <path d="M329.464,32.917 L299.943,32.917 C295.897,32.917 292.618,36.197 292.618,40.242 L292.618,84.021 L299.918,84.021 L299.918,69.42 L329.488,69.42 C333.52,69.42 336.789,66.151 336.789,62.119 L336.789,40.242 C336.789,36.197 333.509,32.917 329.464,32.917 L329.464,32.917 Z M299.918,40.218 L329.703,40.218 L329.703,62.12 L299.918,62.12 L299.918,40.218 Z" id="Fill-9" fill="rgba(26, 25, 24, 0.2)" sketch:type="MSShapeGroup"></path>
            <path d="M451.879,32.917 L490.958,32.917 L490.958,40.217 L451.879,40.217 L451.879,32.917 Z" id="Fill-10" fill="rgba(26, 25, 24, 0.2)" sketch:type="MSShapeGroup"></path>
        </g>
    </g>
</svg>