<?xml version="1.0" encoding="UTF-8" standalone="no"?>
<svg width="59px" height="67px" viewBox="0 0 59 67" version="1.1" xmlns="http://www.w3.org/2000/svg" xmlns:xlink="http://www.w3.org/1999/xlink" xmlns:sketch="http://www.bohemiancoding.com/sketch/ns">
    <!-- Generator: Sketch 3.0.2 (7799) - http://www.bohemiancoding.com/sketch -->
    <title>Imported Layers</title>
    <description>Created with Sketch.</description>
    <defs></defs>
    <g id="Page-1" stroke="none" stroke-width="1" fill="none" fill-rule="evenodd" sketch:type="MSPage">
        <g id="Imported-Layers" sketch:type="MSLayerGroup" transform="translate(1.000000, 0.000000)" fill="#FFFFFF">
            <path d="M29.086,-0.002 C24.781,-0.002 21.291,2.885 21.291,6.447 C21.291,10.009 24.781,12.897 29.086,12.897 C33.391,12.897 36.881,10.009 36.881,6.447 C36.881,2.885 33.391,-0.002 29.086,-0.002 L29.086,-0.002 Z M28.929,11.001 C25.567,11.001 22.84,8.899 22.84,6.306 C22.84,3.713 25.567,1.61 28.929,1.61 C32.292,1.61 35.018,3.713 35.018,6.306 C35.018,8.899 32.292,11.001 28.929,11.001 L28.929,11.001 Z" id="Fill-1" sketch:type="MSShapeGroup"></path>
            <path d="M28.845,9.262 C12.902,9.262 -0.023,22.186 -0.023,38.13 C-0.023,54.073 12.902,66.998 28.845,66.998 C44.789,66.998 57.713,54.073 57.713,38.13 C57.713,22.186 44.789,9.262 28.845,9.262 L28.845,9.262 Z M28.895,63.302 C14.923,63.302 3.597,51.976 3.597,38.004 C3.597,24.032 14.923,12.706 28.895,12.706 C42.867,12.706 54.193,24.032 54.193,38.004 C54.193,51.976 42.867,63.302 28.895,63.302 L28.895,63.302 Z" id="Fill-2" sketch:type="MSShapeGroup"></path>
            <path d="M26.969,7.411 C26.969,6.282 27.893,5.358 29.022,5.358 C30.221,5.358 31.202,6.34 31.202,7.539 L30.221,16.306 C29.022,16.306 30.221,16.306 29.022,16.306 L27.44,16.306" id="Fill-3" sketch:type="MSShapeGroup"></path>
            <path d="M48.606,20.524 L45.701,17.733 L49.14,13.251 L52.377,15.736 L48.606,20.524" id="Fill-4" sketch:type="MSShapeGroup"></path>
            <path d="M55.388,38.744 L54.896,36.016 L48.871,36.051 L48.887,38.833 L55.388,38.744" id="Fill-5" sketch:type="MSShapeGroup"></path>
            <path d="M1.731,39.323 L2.223,36.596 L8.248,36.631 L8.232,39.413 L1.731,39.323" id="Fill-6" sketch:type="MSShapeGroup"></path>
            <path d="M30.164,65.998 L27.437,65.506 L27.471,59.481 L30.254,59.498 L30.164,65.998" id="Fill-7" sketch:type="MSShapeGroup"></path>
            <path d="M52.547,14.599 L50.163,12.842 C49.729,12.522 49.635,11.904 49.956,11.469 L50.006,11.401 C50.326,10.967 50.944,10.873 51.379,11.194 L53.762,12.951 C54.197,13.271 54.29,13.889 53.97,14.324 L53.92,14.392 C53.599,14.826 52.981,14.92 52.547,14.599" id="Fill-8" sketch:type="MSShapeGroup"></path>
            <path d="M38.543,28.44 C34.827,25.664 29.233,30.365 29.233,30.365 C29.232,30.365 27.528,27.858 22.648,27.563 C18.17,27.089 14.723,32.246 18.484,40.619 C22.245,48.992 29.056,50.156 29.056,50.156 C40.827,45.858 44.364,33.007 38.543,28.44 L38.543,28.44 Z M35.195,37.759 L34.098,37.02 L30.225,43.445 L25.994,38.11 L22.315,42.874 C22.305,42.887 22.285,42.876 22.291,42.861 L25.591,34.423 L30.046,39.595 L33.27,36.393 L32.442,35.587 L35.643,34.244 L35.195,37.759 L35.195,37.759 Z" id="Fill-9" sketch:type="MSShapeGroup"></path>
        </g>
    </g>
</svg>