<?xml version="1.0" encoding="UTF-8" standalone="no"?>
<svg width="31px" height="30px" viewBox="0 0 31 30" version="1.1" xmlns="http://www.w3.org/2000/svg" xmlns:xlink="http://www.w3.org/1999/xlink">
    <!-- Generator: Sketch 3.7.2 (28276) - http://www.bohemiancoding.com/sketch -->
    <title>Page 1</title>
    <desc>Created with Sketch.</desc>
    <defs></defs>
    <g id="Page-1" stroke="none" stroke-width="1" fill="none" fill-rule="evenodd">
        <path d="M4.565,24.5621 L10.882,24.5621 L10.882,15.0831 L4.565,15.0831 L4.565,24.5621 Z M11.971,14.5591 L11.971,1.0531 L18.14,1.0531 L18.14,7.5401 L18.14,24.5621 L11.971,24.5621 L11.971,14.5591 Z M19.227,24.5621 L25.399,24.5621 L25.399,8.0681 L19.227,8.0681 L19.227,24.5621 Z M4.02,25.6151 L11.426,25.6151 L18.682,25.6151 L25.943,25.6151 C26.241,25.6151 26.485,25.3761 26.485,25.0891 L26.485,7.5401 C26.485,7.2511 26.241,7.0151 25.943,7.0151 L19.227,7.0151 L19.227,0.5261 C19.227,0.2381 18.985,0.0001 18.682,0.0001 L11.426,0.0001 C11.128,0.0001 10.882,0.2381 10.882,0.5261 L10.882,14.0321 L4.02,14.0321 C3.72,14.0321 3.476,14.2691 3.476,14.5591 L3.476,25.0891 C3.476,25.3761 3.72,25.6151 4.02,25.6151 L4.02,25.6151 Z M29.569,28.0671 L0.544,28.0671 C0.246,28.0671 0,28.3021 0,28.5941 C0,28.8821 0.246,29.1191 0.544,29.1191 L29.569,29.1191 C29.87,29.1191 30.114,28.8821 30.114,28.5941 C30.114,28.3021 29.87,28.0671 29.569,28.0671 L29.569,28.0671 Z" fill="#FFFFFF"></path>
    </g>
</svg>