<?xml version="1.0" encoding="UTF-8" standalone="no"?>
<svg width="50px" height="52px" viewBox="0 0 50 52" version="1.1" xmlns="http://www.w3.org/2000/svg" xmlns:xlink="http://www.w3.org/1999/xlink" xmlns:sketch="http://www.bohemiancoding.com/sketch/ns">
    <!-- Generator: Sketch 3.0.2 (7799) - http://www.bohemiancoding.com/sketch -->
    <title>Imported Layers</title>
    <description>Created with Sketch.</description>
    <defs></defs>
    <g id="Page-1" stroke="none" stroke-width="1" fill="none" fill-rule="evenodd" sketch:type="MSPage">
        <path d="M45.312,5.567 L45.218,5.567 C44.201,5.567 43.376,4.742 43.376,3.725 C43.376,1.671 41.603,0 39.42,0 C37.242,0 35.468,1.671 35.468,3.725 C35.468,4.742 34.644,5.567 33.626,5.567 L15.665,5.567 C14.648,5.567 13.823,4.742 13.823,3.725 C13.823,1.671 12.05,0 9.872,0 C7.689,0 5.92,1.671 5.92,3.725 C5.92,4.742 5.095,5.567 4.078,5.567 L3.933,5.567 C1.769,5.583 0,7.253 0,9.297 L0,51.057 C0,51.577 0.453,52 1.001,52 L48.29,52 C48.839,52 49.287,51.577 49.287,51.057 L49.287,9.297 C49.287,7.253 47.523,5.583 45.312,5.567 L45.312,5.567 Z M23.661,20.431 L23.661,25.986 C23.661,27.003 22.837,27.828 21.819,27.828 L15.675,27.828 C14.657,27.828 13.833,27.003 13.833,25.986 L13.833,20.431 C13.833,19.413 14.657,18.589 15.675,18.589 L21.819,18.589 C22.837,18.589 23.661,19.413 23.661,20.431 L23.661,20.431 Z M35.468,20.431 L35.468,25.986 C35.468,27.003 34.644,27.828 33.626,27.828 L27.501,27.828 C26.484,27.828 25.659,27.003 25.659,25.986 L25.659,20.431 C25.659,19.413 26.484,18.589 27.501,18.589 L33.626,18.589 C34.644,18.589 35.468,19.413 35.468,20.431 L35.468,20.431 Z M47.289,20.431 L47.289,25.986 C47.289,27.003 46.465,27.828 45.448,27.828 L39.308,27.828 C38.29,27.828 37.466,27.003 37.466,25.986 L37.466,20.431 C37.466,19.413 38.29,18.589 39.308,18.589 L45.448,18.589 C46.465,18.589 47.289,19.413 47.289,20.431 L47.289,20.431 Z M9.988,27.828 L3.844,27.828 C2.827,27.828 2.002,27.003 2.002,25.986 L2.002,20.431 C2.002,19.413 2.827,18.589 3.844,18.589 L9.988,18.589 C11.006,18.589 11.831,19.413 11.831,20.431 L11.831,25.986 C11.831,27.003 11.006,27.828 9.988,27.828 L9.988,27.828 Z M3.844,29.711 L9.988,29.711 C11.006,29.711 11.831,30.536 11.831,31.553 L11.831,37.129 C11.831,38.146 11.006,38.971 9.988,38.971 L3.844,38.971 C2.827,38.971 2.002,38.146 2.002,37.129 L2.002,31.553 C2.002,30.536 2.827,29.711 3.844,29.711 L3.844,29.711 Z M15.675,29.711 L21.819,29.711 C22.837,29.711 23.661,30.536 23.661,31.553 L23.661,37.129 C23.661,38.146 22.837,38.971 21.819,38.971 L15.675,38.971 C14.657,38.971 13.833,38.146 13.833,37.129 L13.833,31.553 C13.833,30.536 14.657,29.711 15.675,29.711 L15.675,29.711 Z M27.501,29.711 L33.626,29.711 C34.644,29.711 35.468,30.536 35.468,31.553 L35.468,37.129 C35.468,38.146 34.644,38.971 33.626,38.971 L27.501,38.971 C26.484,38.971 25.659,38.146 25.659,37.129 L25.659,31.553 C25.659,30.536 26.484,29.711 27.501,29.711 L27.501,29.711 Z M39.308,29.711 L45.448,29.711 C46.465,29.711 47.289,30.536 47.289,31.553 L47.289,37.129 C47.289,38.146 46.465,38.971 45.448,38.971 L39.308,38.971 C38.29,38.971 37.466,38.146 37.466,37.129 L37.466,31.553 C37.466,30.536 38.29,29.711 39.308,29.711 L39.308,29.711 Z M37.466,3.725 C37.466,2.709 38.343,1.885 39.42,1.885 C40.497,1.885 41.369,2.709 41.369,3.725 L41.369,9.297 C41.369,10.313 40.497,11.138 39.42,11.138 C38.343,11.138 37.466,10.313 37.466,9.297 L37.466,3.725 L37.466,3.725 Z M7.917,3.725 C7.917,2.709 8.79,1.885 9.872,1.885 C10.949,1.885 11.821,2.709 11.821,3.725 L11.821,9.297 C11.821,10.313 10.949,11.138 9.872,11.138 C8.79,11.138 7.917,10.313 7.917,9.297 L7.917,3.725 L7.917,3.725 Z M2.002,9.297 C2.002,8.288 2.874,7.46 3.98,7.452 L4.078,7.452 C5.095,7.452 5.92,8.277 5.92,9.294 L5.92,9.297 C5.92,11.351 7.689,13.02 9.872,13.02 C12.05,13.02 13.823,11.351 13.823,9.297 L13.823,9.294 C13.823,8.277 14.648,7.452 15.665,7.452 L33.626,7.452 C34.644,7.452 35.468,8.277 35.468,9.294 L35.468,9.297 C35.468,11.351 37.242,13.02 39.42,13.02 C41.603,13.02 43.376,11.351 43.376,9.297 L43.376,9.294 C43.376,8.277 44.201,7.452 45.218,7.452 L45.345,7.452 C46.417,7.46 47.289,8.288 47.289,9.297 L47.289,14.863 C47.289,15.88 46.465,16.705 45.448,16.705 L3.844,16.705 C2.827,16.705 2.002,15.88 2.002,14.863 L2.002,9.297 L2.002,9.297 Z M3.844,40.856 L9.988,40.856 C11.006,40.856 11.831,41.681 11.831,42.698 L11.831,48.272 C11.831,49.289 11.006,50.114 9.988,50.114 L3.844,50.114 C2.827,50.114 2.002,49.289 2.002,48.272 L2.002,42.698 C2.002,41.681 2.827,40.856 3.844,40.856 L3.844,40.856 Z M15.675,40.856 L21.819,40.856 C22.837,40.856 23.661,41.681 23.661,42.698 L23.661,48.272 C23.661,49.289 22.837,50.114 21.819,50.114 L15.675,50.114 C14.657,50.114 13.833,49.289 13.833,48.272 L13.833,42.698 C13.833,41.681 14.657,40.856 15.675,40.856 L15.675,40.856 Z M27.501,40.856 L33.626,40.856 C34.644,40.856 35.468,41.681 35.468,42.698 L35.468,48.272 C35.468,49.289 34.644,50.114 33.626,50.114 L27.501,50.114 C26.484,50.114 25.659,49.289 25.659,48.272 L25.659,42.698 C25.659,41.681 26.484,40.856 27.501,40.856 L27.501,40.856 Z M45.448,50.114 L39.308,50.114 C38.29,50.114 37.466,49.289 37.466,48.272 L37.466,42.698 C37.466,41.681 38.29,40.856 39.308,40.856 L45.448,40.856 C46.465,40.856 47.289,41.681 47.289,42.698 L47.289,48.272 C47.289,49.289 46.465,50.114 45.448,50.114 L45.448,50.114 Z" id="Imported-Layers" fill="#FFFFFF" sketch:type="MSShapeGroup"></path>
    </g>
</svg>