<?xml version="1.0" encoding="UTF-8" standalone="no"?>
<svg width="35px" height="34px" viewBox="0 0 35 34" version="1.1" xmlns="http://www.w3.org/2000/svg" xmlns:xlink="http://www.w3.org/1999/xlink">
    <!-- Generator: Sketch 3.7.2 (28276) - http://www.bohemiancoding.com/sketch -->
    <title>Page 1</title>
    <desc>Created with Sketch.</desc>
    <defs>
        <polygon id="path-1" points="34.822 33.7392 34.822 0.0002 0.9695 0.0002 0.9695 33.7392 34.822 33.7392"></polygon>
    </defs>
    <g id="Page-1" stroke="none" stroke-width="1" fill="none" fill-rule="evenodd">
        <g>
            <mask id="mask-2" fill="white">
                <use xlink:href="#path-1"></use>
            </mask>
            <g id="Clip-2"></g>
            <path d="M34.6055,32.1732 L34.6235,32.1552 L26.3755,24.0722 C26.3795,24.0672 26.3835,24.0622 26.3875,24.0572 L25.0105,22.7302 C22.6985,25.4082 19.2855,27.1102 15.4705,27.1102 C8.5065,27.1102 2.8615,21.4652 2.8615,14.5012 C2.8615,7.5372 8.5065,1.8912 15.4705,1.8912 C22.4345,1.8912 28.0795,7.5372 28.0795,14.5012 C28.0795,15.9872 27.8055,17.4052 27.3325,18.7292 C27.1705,18.9092 27.0645,19.1422 27.0645,19.4032 C27.0645,19.9632 27.5195,20.4182 28.0795,20.4182 C28.3865,20.4182 28.6525,20.2742 28.8385,20.0582 L28.8625,20.0772 C28.8785,20.0382 28.8905,19.9972 28.9065,19.9592 C28.9985,19.8212 29.0605,19.6662 29.0765,19.4912 C29.6525,17.9372 29.9905,16.2672 29.9905,14.5102 C29.9905,6.4962 23.4935,0.0002 15.4805,0.0002 C7.4665,0.0002 0.9695,6.4962 0.9695,14.5102 C0.9695,22.5242 7.4665,29.0212 15.4805,29.0212 C19.1205,29.0212 22.4375,27.6672 24.9855,25.4522 C25.0225,25.4672 25.0665,25.4662 25.1065,25.4762 L33.0395,33.2512 C33.2075,33.5382 33.5035,33.7392 33.8575,33.7392 C34.3905,33.7392 34.8225,33.3032 34.8225,32.7642 C34.8225,32.5382 34.7335,32.3392 34.6055,32.1732" id="Fill-1" fill="#FFFFFF" mask="url(#mask-2)"></path>
        </g>
    </g>
</svg>