<?xml version="1.0" encoding="UTF-8" standalone="no"?>
<svg width="48px" height="48px" viewBox="0 0 48 48" version="1.1" xmlns="http://www.w3.org/2000/svg" xmlns:xlink="http://www.w3.org/1999/xlink">
    <!-- Generator: Sketch 3.7.2 (28276) - http://www.bohemiancoding.com/sketch -->
    <title>Fill 1</title>
    <desc>Created with Sketch.</desc>
    <defs></defs>
    <g id="Page-1" stroke="none" stroke-width="1" fill="none" fill-rule="evenodd">
        <path d="M40.337,44.383 L36,30.974 C35.765,30.249 36.024,29.455 36.642,29.008 L48.054,20.74 C49.434,19.74 48.728,17.558 47.024,17.555 L32.931,17.537 C32.169,17.536 31.494,17.044 31.259,16.319 L26.922,2.91 C26.398,1.288 24.104,1.285 23.576,2.905 L19.203,16.303 C18.966,17.027 18.29,17.517 17.528,17.516 L3.435,17.498 C1.731,17.495 1.019,19.675 2.397,20.679 L13.787,28.978 C14.403,29.427 14.66,30.221 14.424,30.946 L10.051,44.343 C9.522,45.963 11.376,47.314 12.756,46.314 L24.168,38.045 C24.785,37.598 25.621,37.599 26.237,38.048 L37.627,46.347 C39.004,47.35 40.862,46.005 40.337,44.383 L40.337,44.383 Z M0,48.5 L50.417,48.5 L50.417,0 L0,0 L0,48.5 Z" id="Fill-1" fill="#ffffff"></path>
    </g>
</svg>